<svg width="38" height="38" viewBox="0 0 38 38" fill="none" xmlns="http://www.w3.org/2000/svg">
<g clip-path="url(#clip0_602_13339)">
<path d="M37.4215 36.8485H31.0886V7.19696C31.0886 7.04426 31.0279 6.89782 30.92 6.78984C30.812 6.68186 30.6656 6.62119 30.5129 6.62117H11.6451C11.3271 6.62117 11.0694 6.87893 11.0694 7.19696C11.0694 7.51498 11.3271 7.77275 11.6451 7.77275H29.9372V36.8485H26.7707V31.9376C26.7719 31.8612 26.7579 31.7853 26.7296 31.7144C26.7012 31.6435 26.659 31.5789 26.6054 31.5244C26.5518 31.47 26.4879 31.4268 26.4175 31.3972C26.347 31.3677 26.2714 31.3525 26.195 31.3525C26.1186 31.3525 26.043 31.3677 25.9725 31.3972C25.9021 31.4268 25.8382 31.47 25.7846 31.5244C25.731 31.5789 25.6888 31.6435 25.6604 31.7144C25.632 31.7853 25.618 31.8612 25.6193 31.9376V36.8485H19.5742V12.0909H25.6193V29.5317C25.618 29.6081 25.632 29.6839 25.6604 29.7548C25.6888 29.8258 25.731 29.8903 25.7846 29.9448C25.8382 29.9992 25.9021 30.0425 25.9725 30.072C26.043 30.1015 26.1186 30.1167 26.195 30.1167C26.2714 30.1167 26.347 30.1015 26.4175 30.072C26.4879 30.0425 26.5518 29.9992 26.6054 29.9448C26.659 29.8903 26.7012 29.8258 26.7296 29.7548C26.7579 29.6839 26.7719 29.6081 26.7707 29.5317V11.5151C26.7707 11.3624 26.7101 11.2159 26.6021 11.108C26.4941 11 26.3477 10.9393 26.195 10.9393H11.8022C11.7266 10.9393 11.6517 10.9542 11.5819 10.9831C11.512 11.0121 11.4485 11.0545 11.3951 11.1079C11.3416 11.1614 11.2992 11.2249 11.2703 11.2947C11.2414 11.3646 11.2265 11.4395 11.2265 11.5151V36.8484H8.06001V7.77267H9.38095C9.69891 7.77267 9.95667 7.51491 9.95667 7.19688C9.95667 6.87886 9.69891 6.62109 9.38095 6.62109H7.48429C7.40868 6.62109 7.33381 6.63599 7.26396 6.66492C7.19411 6.69386 7.13064 6.73628 7.07718 6.78974C7.02371 6.84321 6.98131 6.90669 6.95238 6.97654C6.92345 7.0464 6.90857 7.12127 6.90858 7.19688V36.8484H0.575715C0.257762 36.8484 0 37.1061 0 37.4242C0 37.7422 0.257762 38 0.575715 38H14.2644C14.5824 38 14.8401 37.7422 14.8401 37.4242C14.8401 37.1061 14.5824 36.8484 14.2644 36.8484H12.3778V12.0909H18.4229V36.8485H16.5387C16.2207 36.8485 15.963 37.1062 15.963 37.4243C15.963 37.7423 16.2207 38 16.5387 38H37.4215C37.7394 38 37.9972 37.7423 37.9972 37.4243C37.9972 37.1062 37.7394 36.8485 37.4215 36.8485Z" fill="black"/>
<path d="M33.6794 21.6263H37.4216C37.4227 21.6263 37.4238 21.6264 37.4244 21.6263C37.5 21.6263 37.5749 21.6114 37.6447 21.5825C37.7146 21.5536 37.7781 21.5111 37.8315 21.4577C37.885 21.4042 37.9274 21.3407 37.9563 21.2709C37.9852 21.201 38.0001 21.1261 38.0001 21.0505C38.0003 20.931 37.9631 20.8145 37.8938 20.7171L36.049 17.5216C35.9986 17.434 35.9259 17.3613 35.8384 17.3107C35.7509 17.2602 35.6516 17.2336 35.5505 17.2336C35.4494 17.2336 35.3502 17.2602 35.2626 17.3107C35.1751 17.3613 35.1025 17.434 35.052 17.5216L33.1809 20.7627C33.1304 20.8502 33.1038 20.9495 33.1038 21.0505C33.1038 21.1516 33.1304 21.2509 33.1809 21.3384C33.2314 21.4259 33.3041 21.4986 33.3916 21.5491C33.4791 21.5997 33.5783 21.6263 33.6794 21.6263ZM35.5504 18.961L36.4244 20.4748H34.6765L35.5504 18.961ZM37.4215 22.9949H33.6793C33.5782 22.9949 33.479 23.0215 33.3914 23.072C33.3039 23.1226 33.2312 23.1953 33.1807 23.2828C33.1302 23.3703 33.1036 23.4696 33.1036 23.5707C33.1036 23.6718 33.1302 23.7711 33.1808 23.8586L35.0518 27.0996C35.1024 27.1871 35.175 27.2598 35.2625 27.3103C35.35 27.3609 35.4493 27.3875 35.5504 27.3875C35.6514 27.3875 35.7507 27.3609 35.8382 27.3103C35.9257 27.2598 35.9984 27.1871 36.0489 27.0996L37.9199 23.8586C37.9705 23.7711 37.9971 23.6718 37.9971 23.5707C37.9972 23.4697 37.9706 23.3704 37.9201 23.2828C37.8695 23.1953 37.7969 23.1226 37.7094 23.0721C37.6218 23.0215 37.5226 22.9949 37.4215 22.9949ZM35.5504 25.6602L34.6764 24.1464H36.4244L35.5504 25.6602ZM11.8022 4.0303H26.1951C26.2707 4.0303 26.3456 4.01541 26.4154 3.98647C26.4853 3.95753 26.5488 3.91512 26.6022 3.86165C26.6557 3.80818 26.6981 3.74471 26.727 3.67485C26.7559 3.60499 26.7708 3.53012 26.7708 3.45451V0.575789C26.7708 0.423093 26.7102 0.27665 26.6022 0.168671C26.4942 0.0606917 26.3478 1.96824e-05 26.1951 0L23.4966 0C23.1786 0 22.9209 0.257762 22.9209 0.575789C22.9209 0.893816 23.1786 1.15158 23.4966 1.15158H25.6194V2.87887H12.3779V1.1515H21.5532C21.8712 1.1515 22.1289 0.893742 22.1289 0.575715C22.1289 0.257687 21.8712 0 21.5532 0H11.8022C11.7266 -6.28294e-10 11.6517 0.0148938 11.5819 0.0438308C11.512 0.0727678 11.4486 0.115181 11.3951 0.168649C11.3416 0.222117 11.2992 0.285592 11.2703 0.35545C11.2414 0.425307 11.2265 0.500179 11.2265 0.575789V3.45459C11.2265 3.60727 11.2872 3.75371 11.3951 3.86168C11.5031 3.96965 11.6495 4.0303 11.8022 4.0303ZM17.8427 13.2424C17.8427 13.0897 17.782 12.9433 17.674 12.8353C17.5661 12.7273 17.4196 12.6666 17.2669 12.6666H13.5294C13.4538 12.6666 13.3789 12.6815 13.309 12.7104C13.2392 12.7394 13.1757 12.7818 13.1222 12.8353C13.0688 12.8887 13.0264 12.9522 12.9975 13.0221C12.9685 13.0919 12.9536 13.1668 12.9537 13.2424V16.973C12.9524 17.0494 12.9664 17.1253 12.9948 17.1962C13.0232 17.2671 13.0654 17.3317 13.119 17.3861C13.1725 17.4406 13.2364 17.4838 13.3069 17.5133C13.3773 17.5428 13.453 17.558 13.5294 17.558C13.6058 17.558 13.6814 17.5428 13.7518 17.5133C13.8223 17.4838 13.8862 17.4406 13.9398 17.3861C13.9933 17.3317 14.0356 17.2671 14.0639 17.1962C14.0923 17.1253 14.1063 17.0494 14.1051 16.973V13.8181H17.2669C17.4196 13.8181 17.5661 13.7575 17.674 13.6495C17.782 13.5415 17.8427 13.3951 17.8427 13.2424ZM8.63679 8.92532V12.656C8.63557 12.7324 8.64955 12.8082 8.67793 12.8792C8.70631 12.9501 8.74853 13.0147 8.80211 13.0691C8.85569 13.1236 8.91957 13.1668 8.99003 13.1963C9.06049 13.2258 9.13612 13.241 9.21251 13.241C9.2889 13.241 9.36453 13.2258 9.43499 13.1963C9.50544 13.1668 9.56933 13.1236 9.62291 13.0691C9.67649 13.0147 9.7187 12.9501 9.74708 12.8792C9.77546 12.8082 9.78945 12.7324 9.78822 12.656V9.50104H12.9502C13.1029 9.50104 13.2493 9.44038 13.3573 9.33239C13.4653 9.22441 13.526 9.07796 13.526 8.92525C13.526 8.77254 13.4653 8.62609 13.3573 8.5181C13.2493 8.41012 13.1029 8.34946 12.9502 8.34946H9.21251C9.05981 8.34952 8.91339 8.41021 8.80543 8.5182C8.69747 8.62619 8.63681 8.77263 8.63679 8.92532Z" fill="black"/>
</g>
<defs>
<clipPath id="clip0_602_13339">
<rect width="38" height="38" fill="white"/>
</clipPath>
</defs>
</svg>
