<svg width="39" height="39" viewBox="0 0 39 39" fill="none" xmlns="http://www.w3.org/2000/svg">
<g clip-path="url(#clip0_602_13343)">
<path d="M18.2283 31.4834C18.5515 31.4834 18.8134 31.2197 18.814 30.8937L18.8163 29.4476C18.8169 29.121 18.5549 28.8561 18.2315 28.8555H18.2306C17.9074 28.8555 17.6454 29.1192 17.6449 29.4452L17.6426 30.8913C17.642 31.2179 17.904 31.4828 18.2274 31.4834H18.2283Z" fill="black"/>
<path d="M37.5266 29.6535L36.1847 27.5871C36.0077 27.3147 35.6453 27.2385 35.3739 27.4162C35.1033 27.5951 35.0275 27.9616 35.2048 28.2345L36.5467 30.301C36.8616 30.7863 36.9705 31.3657 36.8533 31.9335C36.736 32.5008 36.4066 32.9884 35.9258 33.3063C35.4453 33.6237 34.8696 33.7339 34.3079 33.6156C33.7454 33.4973 33.262 33.1649 32.9471 32.6802L32.2124 31.5486C32.0356 31.2762 31.673 31.2001 31.4016 31.3777C31.131 31.5566 31.0552 31.9231 31.2325 32.196L31.9673 33.3276C32.4535 34.0767 33.1999 34.5902 34.0691 34.7726C34.2968 34.8205 34.5258 34.8441 34.7532 34.8441C35.3933 34.8441 36.0202 34.6566 36.5679 34.2948C37.3103 33.8037 37.8188 33.0512 38.0001 32.1746C38.1812 31.2976 38.0131 30.4025 37.5266 29.6535Z" fill="black"/>
<path d="M31.1517 29.9144L29.3637 27.1832L32.9667 24.7872L34.1713 26.6419C34.3486 26.9149 34.7119 26.9916 34.9821 26.8128C35.253 26.6339 35.3285 26.2674 35.1512 25.9945L33.9465 24.1398C33.7767 23.8784 33.5164 23.6995 33.2132 23.6354C32.9581 23.5815 32.6994 23.6201 32.4691 23.7345L31.7359 22.6054C32.8888 21.389 33.6925 19.8764 34.0415 18.1891C34.5337 15.8094 34.0778 13.3799 32.7579 11.3475C31.4381 9.31458 29.412 7.92269 27.0531 7.42757C24.6945 6.93245 22.2841 7.39354 20.2667 8.72651C19.806 9.03112 19.3873 9.37515 19.0025 9.74553L16.15 7.54179C15.9361 7.37675 15.6375 7.37906 15.427 7.55042L3.69013 17.068C3.43475 17.2682 3.12016 17.3536 2.80638 17.308C2.48494 17.2613 2.20004 17.0853 2.00388 16.8112C1.59118 16.2347 1.701 15.4159 2.25615 14.9808L15.0477 4.63635C15.4684 4.30627 16.039 4.29877 16.4596 4.61325L20.1748 7.47603C20.4316 7.67451 20.7988 7.62316 20.9959 7.36523C21.1921 7.10553 21.1429 6.73509 20.8858 6.5366L17.1635 3.66862C16.3086 3.03038 15.1698 3.0448 14.3221 3.70845L8.32837 8.55568L8.3327 5.80375C8.75941 5.76168 9.15659 5.57785 9.46245 5.2584C9.80563 4.90061 9.995 4.42569 9.99582 3.92194C9.99699 2.87284 9.17328 2.01762 8.15915 2.01591L3.23449 2.00781C3.23361 2.00781 3.2325 2.00781 3.23162 2.00781C2.73738 2.00781 2.27355 2.20748 1.92545 2.57101C1.58257 2.9288 1.39326 3.40378 1.39238 3.90753C1.3908 4.89352 2.12015 5.69798 3.04917 5.79448L3.0381 12.834L1.53026 14.0534C0.489779 14.8694 0.276165 16.4171 1.05436 17.5037C1.43848 18.0398 2.00189 18.3855 2.64051 18.4777C3.27285 18.5701 3.90034 18.3999 4.41654 17.9947L15.8028 8.76179L18.207 10.6194C17.748 11.1961 17.3607 11.8194 17.0557 12.4782C16.7532 12.397 16.4396 12.3509 16.1182 12.3506H16.112C15.1293 12.3506 14.2047 12.7366 13.5074 13.4377C12.8086 14.14 12.4228 15.0742 12.4214 16.068C12.4197 17.0616 12.8024 17.997 13.499 18.7022C14.1955 19.4074 15.1218 19.7964 16.1067 19.7981H16.113C16.3601 19.7981 16.6034 19.7733 16.8404 19.7255C17.0588 20.274 17.332 20.8092 17.6651 21.3221C19.394 23.9847 22.2806 25.4319 25.2223 25.4319C26.0881 25.4319 26.9583 25.3047 27.8055 25.0481L28.6095 26.2864C28.171 26.6628 28.0637 27.3165 28.3872 27.8141L28.6504 28.2194L28.6386 35.8092L20.8609 35.7969L20.8765 25.6939C20.8788 24.4111 19.8464 23.366 18.5745 23.3637L13.4151 23.3556H13.4108C12.7965 23.3556 12.2188 23.5963 11.7835 24.0342C11.3474 24.4728 11.1065 25.0568 11.1057 25.6777L11.1023 27.758C11.1017 28.0846 11.3637 28.3495 11.6871 28.3501H11.688C12.0112 28.3501 12.2731 28.0864 12.2737 27.7604L12.2772 25.6801C12.2777 25.3742 12.3961 25.0869 12.6106 24.8711C12.8245 24.6558 13.1088 24.5375 13.4108 24.5375H13.4131L18.5725 24.5456C19.1983 24.5468 19.7062 25.0609 19.7051 25.6917L19.6893 35.7949L12.2611 35.7834L12.2694 30.5667C12.27 30.2402 12.008 29.9752 11.6846 29.9747H11.6837C11.3605 29.9747 11.0986 30.2384 11.098 30.5644L11.0898 35.7815L3.52454 35.7693L3.54569 22.3313C3.54627 22.0047 3.28428 21.7398 2.96084 21.7392H2.95996C2.63676 21.7392 2.37482 22.0029 2.37423 22.3289L2.35221 36.3579C2.35163 36.6845 2.61362 36.9494 2.93706 36.95L29.2227 36.9921H29.2235C29.3785 36.9921 29.5273 36.9304 29.6371 36.8196C29.7472 36.7088 29.809 36.5587 29.8093 36.4023L29.8192 30.0188L30.172 30.5619C30.2844 30.735 30.4714 30.8291 30.6624 30.8291C30.7726 30.8291 30.8838 30.7979 30.9828 30.7327C31.2533 30.5538 31.3291 30.1874 31.1517 29.9144ZM7.15545 9.5042L4.21101 11.8854L4.22062 5.81528L5.69424 5.81758L7.16125 5.82L7.15545 9.5042ZM2.56383 3.90983C2.56413 3.71306 2.63646 3.52952 2.76772 3.39219C2.89301 3.26178 3.05778 3.18963 3.23168 3.18963H3.23285L8.15746 3.19773C8.52553 3.19832 8.82471 3.52202 8.82442 3.91964C8.82413 4.11641 8.75179 4.29995 8.62053 4.43728C8.49489 4.56769 8.33019 4.63984 8.15628 4.63984C8.15599 4.63984 8.1557 4.63984 8.15511 4.63984L3.23051 4.63174C2.86244 4.63115 2.56325 4.30745 2.56383 3.90983ZM16.4781 18.582C16.3583 18.6022 16.2369 18.6162 16.1128 18.6162H16.1085C15.4364 18.615 14.8043 18.3496 14.3287 17.8678C13.8531 17.3865 13.5917 16.7483 13.5929 16.0702C13.594 15.3921 13.8572 14.7545 14.3342 14.2744C14.8104 13.796 15.4415 13.5323 16.1122 13.5323H16.1165C16.2876 13.5325 16.4543 13.5553 16.6173 13.5912C16.1161 15.1923 16.0604 16.9223 16.4781 18.582ZM18.645 20.6746C16.274 17.0235 17.2896 12.1076 20.9084 9.71563C22.2043 8.8587 23.6866 8.41551 25.1996 8.41551C25.7364 8.41551 26.2769 8.47147 26.8146 8.58457C28.8669 9.01505 30.6295 10.2263 31.7781 11.995C32.9263 13.7637 33.323 15.8775 32.8949 17.9473C32.4665 20.0184 31.2635 21.7981 29.5081 22.958C25.8882 25.3499 21.0151 24.325 18.645 20.6746ZM28.9298 24.6227C29.3468 24.4318 29.7551 24.208 30.1498 23.9471C30.3983 23.7828 30.6368 23.6072 30.8656 23.422L31.4816 24.3704L29.5815 25.6263L28.9298 24.6227Z" fill="black"/>
<path d="M20.0533 18.0389C19.8751 17.4901 19.7847 16.9166 19.7847 16.3337C19.7847 13.3163 22.2192 10.8615 25.2112 10.8615C26.5423 10.8615 27.8224 11.352 28.816 12.243C29.0582 12.4606 29.4283 12.4386 29.6431 12.1939C29.8579 11.9504 29.8361 11.5765 29.5945 11.3601C28.3858 10.2764 26.8294 9.67969 25.2112 9.67969C21.5731 9.67969 18.6133 12.6648 18.6133 16.3337C18.6133 17.0418 18.7231 17.7395 18.9402 18.4071C19.0211 18.6558 19.2502 18.814 19.4967 18.814C19.5571 18.814 19.6186 18.8047 19.6792 18.7845C19.9866 18.683 20.154 18.3494 20.0533 18.0389Z" fill="black"/>
<path d="M31.8095 16.3326C31.8095 15.3597 31.6062 14.4226 31.205 13.5466C31.0691 13.2494 30.7213 13.1213 30.4276 13.2575C30.1339 13.3948 30.0058 13.7457 30.1416 14.0417C30.4711 14.7619 30.6381 15.5322 30.6381 16.3326C30.6381 17.9513 29.9338 19.4764 28.6931 20.5284C28.6573 20.5602 28.6216 20.5908 28.5864 20.619C27.6317 21.3854 26.4331 21.8072 25.2116 21.8072C23.9747 21.8072 22.8075 21.3963 21.8374 20.619C21.8017 20.5907 21.7659 20.5602 21.7182 20.5175C21.4513 20.2913 21.2054 20.0385 20.9863 19.7655C20.7824 19.5116 20.414 19.4724 20.1624 19.6778C19.911 19.8833 19.8724 20.2554 20.0758 20.5088C20.3417 20.84 20.6403 21.1477 20.9518 21.4113C21.0035 21.4581 21.0553 21.5013 21.1082 21.544C22.2719 22.476 23.7291 22.989 25.2118 22.989C26.6972 22.989 28.1547 22.4754 29.3164 21.5434C29.3682 21.5013 29.42 21.4581 29.4591 21.4223C30.9527 20.1562 31.8095 18.301 31.8095 16.3326Z" fill="black"/>
</g>
<defs>
<clipPath id="clip0_602_13343">
<rect width="38.6579" height="39" fill="white"/>
</clipPath>
</defs>
</svg>
