<svg width="38" height="37" viewBox="0 0 38 37" fill="none" xmlns="http://www.w3.org/2000/svg">
<g clip-path="url(#clip0_602_13351)">
<path d="M30.5696 28.1161C34.2506 28.1161 37.245 25.1414 37.245 21.4846C37.245 19.0104 35.8356 16.7419 33.6652 15.6088C34.0633 14.7461 34.271 13.805 34.271 12.8461C34.271 9.18959 31.2766 6.21484 27.5959 6.21484C25.9822 6.21484 24.4656 6.78111 23.2781 7.78493V4.32154C23.61 4.25436 23.8601 3.96275 23.8601 3.61328V0.722656C23.8601 0.323502 23.5345 0 23.1327 0H0.727442C0.325644 0 0 0.323502 0 0.722656V3.61328C0 3.96275 0.250058 4.25436 0.581954 4.32154V36.2773C0.581954 36.6765 0.907598 37 1.3094 37H29.8226C30.038 37 30.242 36.9054 30.3804 36.7414C30.8279 36.2104 31.0746 35.5366 31.0746 34.8439C31.0746 33.289 29.8595 32.0114 28.3234 31.8968V27.73C29.0406 27.984 29.8013 28.1161 30.5696 28.1161ZM27.5959 7.66016C30.4744 7.66016 32.8162 9.98649 32.8162 12.8463C32.8162 13.8115 32.5473 14.7535 32.0387 15.5704C31.9242 15.7542 31.8983 15.9795 31.9688 16.1841C32.039 16.3888 32.1978 16.5514 32.4019 16.6273C34.4285 17.3819 35.7901 19.3342 35.7901 21.4846C35.7901 24.3442 33.4484 26.6708 30.5696 26.6708C29.7899 26.6708 29.0212 26.4969 28.3234 26.1666V23.7136L31.6253 20.4331C31.9094 20.1508 31.9094 19.6932 31.6253 19.4109C31.3414 19.1289 30.8808 19.1289 30.5966 19.4109L28.3234 21.6695V19.9459C28.3234 19.9456 28.3234 19.9453 28.3234 19.945V14.7665C28.3234 14.3673 27.9974 14.0438 27.5959 14.0438C27.1941 14.0438 26.8685 14.3673 26.8685 14.7665V18.2008L26.2666 17.6029C25.9825 17.3209 25.5221 17.3209 25.2377 17.6029C24.9538 17.8852 24.9538 18.3428 25.2377 18.6251L26.8685 20.2448V23.4138V23.4146V26.1666C26.1703 26.4969 25.4017 26.6708 24.6219 26.6708C24.1641 26.6708 23.714 26.6121 23.2781 26.4969V9.9306C24.2537 8.50533 25.8526 7.66016 27.5959 7.66016ZM26.8685 31.2586C26.1299 30.4453 25.0663 29.9541 23.9115 29.9541C23.697 29.9541 23.4856 29.9716 23.2781 30.0046V27.9801C23.718 28.0695 24.167 28.1161 24.6219 28.1161C25.3906 28.1161 26.151 27.984 26.8685 27.73V31.2586ZM2.03684 4.33594H8.63241C9.03392 4.33594 9.35985 4.01244 9.35985 3.61328C9.35985 3.21413 9.03392 2.89062 8.63241 2.89062H1.45488V1.44531H22.4052V2.89062H15.1791C14.7776 2.89062 14.4517 3.21413 14.4517 3.61328C14.4517 4.01244 14.7776 4.33594 15.1791 4.33594H21.8233V30.5421C21.2771 30.8763 20.8125 31.341 20.4789 31.9041C20.442 31.9081 20.405 31.9132 20.3684 31.9185V28.3281C20.3684 27.929 20.0427 27.6055 19.6409 27.6055H16.4402C16.0384 27.6055 15.7127 27.929 15.7127 28.3281V32.375C15.7127 32.7742 16.0384 33.0977 16.4402 33.0977H18.3972C18.0352 33.5874 17.8206 34.191 17.8206 34.8439C17.8206 35.085 17.851 35.3235 17.9087 35.5547H2.03684V4.33594ZM18.9135 31.6523H17.1676V29.0508H18.9135V31.6523ZM29.6197 34.8439C29.6197 35.0929 29.5574 35.3373 29.4407 35.5547H19.4545C19.338 35.3373 19.2755 35.0929 19.2755 34.8439C19.2755 34.0109 19.9578 33.3331 20.7963 33.3331C20.8267 33.3331 20.8571 33.3342 20.887 33.3359C21.1916 33.3531 21.4735 33.1815 21.5957 32.9043C21.9986 31.9902 22.9076 31.3994 23.9115 31.3994C25.0038 31.3994 25.968 32.0913 26.311 33.1214C26.3794 33.326 26.536 33.49 26.7383 33.5679C26.9406 33.6461 27.1677 33.6303 27.3572 33.5248C27.5828 33.3994 27.8392 33.3331 28.0989 33.3331C28.9374 33.3331 29.6197 34.0109 29.6197 34.8439Z" fill="black"/>
<path d="M7.42037 27.6055H4.21963C3.81783 27.6055 3.49219 27.929 3.49219 28.3281V32.375C3.49219 32.7742 3.81783 33.0977 4.21963 33.0977H7.42037C7.82217 33.0977 8.14782 32.7742 8.14782 32.375V28.3281C8.14782 27.929 7.82217 27.6055 7.42037 27.6055ZM6.69293 31.6523H4.94707V29.0508H6.69293V31.6523Z" fill="black"/>
<path d="M13.5297 27.6055H10.329C9.92721 27.6055 9.60156 27.929 9.60156 28.3281V32.375C9.60156 32.7742 9.92721 33.0977 10.329 33.0977H13.5297C13.9315 33.0977 14.2572 32.7742 14.2572 32.375V28.3281C14.2572 27.929 13.9315 27.6055 13.5297 27.6055ZM12.8023 31.6523H11.0564V29.0508H12.8023V31.6523Z" fill="black"/>
<path d="M7.42037 20.668H4.21963C3.81783 20.668 3.49219 20.9915 3.49219 21.3906V25.4375C3.49219 25.8367 3.81783 26.1602 4.21963 26.1602H7.42037C7.82217 26.1602 8.14782 25.8367 8.14782 25.4375V21.3906C8.14782 20.9915 7.82217 20.668 7.42037 20.668ZM6.69293 24.7148H4.94707V22.1133H6.69293V24.7148Z" fill="black"/>
<path d="M13.5297 20.668H10.329C9.92721 20.668 9.60156 20.9915 9.60156 21.3906V25.4375C9.60156 25.8367 9.92721 26.1602 10.329 26.1602H13.5297C13.9315 26.1602 14.2572 25.8367 14.2572 25.4375V21.3906C14.2572 20.9915 13.9315 20.668 13.5297 20.668ZM12.8023 24.7148H11.0564V22.1133H12.8023V24.7148Z" fill="black"/>
<path d="M16.4403 26.1602H19.6411C20.0429 26.1602 20.3685 25.8367 20.3685 25.4375V21.3906C20.3685 20.9915 20.0429 20.668 19.6411 20.668H16.4403C16.0385 20.668 15.7129 20.9915 15.7129 21.3906V25.4375C15.7129 25.8367 16.0385 26.1602 16.4403 26.1602ZM17.1678 22.1133H18.9136V24.7148H17.1678V22.1133Z" fill="black"/>
<path d="M7.42037 13.7305H4.21963C3.81783 13.7305 3.49219 14.054 3.49219 14.4531V18.5C3.49219 18.8992 3.81783 19.2227 4.21963 19.2227H7.42037C7.82217 19.2227 8.14782 18.8992 8.14782 18.5V14.4531C8.14782 14.054 7.82217 13.7305 7.42037 13.7305ZM6.69293 17.7773H4.94707V15.1758H6.69293V17.7773Z" fill="black"/>
<path d="M13.5297 13.7305H10.329C9.92721 13.7305 9.60156 14.054 9.60156 14.4531V18.5C9.60156 18.8992 9.92721 19.2227 10.329 19.2227H13.5297C13.9315 19.2227 14.2572 18.8992 14.2572 18.5V14.4531C14.2572 14.054 13.9315 13.7305 13.5297 13.7305ZM12.8023 17.7773H11.0564V15.1758H12.8023V17.7773Z" fill="black"/>
<path d="M16.4403 19.2227H19.6411C20.0429 19.2227 20.3685 18.8992 20.3685 18.5V14.4531C20.3685 14.054 20.0429 13.7305 19.6411 13.7305H16.4403C16.0385 13.7305 15.7129 14.054 15.7129 14.4531V18.5C15.7129 18.8992 16.0385 19.2227 16.4403 19.2227ZM17.1678 15.1758H18.9136V17.7773H17.1678V15.1758Z" fill="black"/>
<path d="M7.42037 6.79297H4.21963C3.81783 6.79297 3.49219 7.11647 3.49219 7.51562V11.5625C3.49219 11.9617 3.81783 12.2852 4.21963 12.2852H7.42037C7.82217 12.2852 8.14782 11.9617 8.14782 11.5625V7.51562C8.14782 7.11647 7.82217 6.79297 7.42037 6.79297ZM6.69293 10.8398H4.94707V8.23828H6.69293V10.8398Z" fill="black"/>
<path d="M13.5297 6.79297H10.329C9.92721 6.79297 9.60156 7.11647 9.60156 7.51562V11.5625C9.60156 11.9617 9.92721 12.2852 10.329 12.2852H13.5297C13.9315 12.2852 14.2572 11.9617 14.2572 11.5625V7.51562C14.2572 7.11647 13.9315 6.79297 13.5297 6.79297ZM12.8023 10.8398H11.0564V8.23828H12.8023V10.8398Z" fill="black"/>
<path d="M16.4403 12.2852H19.6411C20.0429 12.2852 20.3685 11.9617 20.3685 11.5625V7.51562C20.3685 7.11647 20.0429 6.79297 19.6411 6.79297H16.4403C16.0385 6.79297 15.7129 7.11647 15.7129 7.51562V11.5625C15.7129 11.9617 16.0385 12.2852 16.4403 12.2852ZM17.1678 8.23828H18.9136V10.8398H17.1678V8.23828Z" fill="black"/>
<path d="M11.9071 4.33594C12.0984 4.33594 12.2859 4.25859 12.4212 4.12422C12.5564 3.98985 12.6346 3.80326 12.6346 3.61328C12.6346 3.4233 12.5567 3.23671 12.4212 3.10234C12.2859 2.96797 12.0984 2.89062 11.9071 2.89062C11.7148 2.89062 11.5281 2.96797 11.3928 3.10234C11.2567 3.23671 11.1797 3.4233 11.1797 3.61328C11.1797 3.80326 11.2567 3.98985 11.3928 4.12422C11.5281 4.25859 11.7148 4.33594 11.9071 4.33594Z" fill="black"/>
</g>
<defs>
<clipPath id="clip0_602_13351">
<rect width="37.245" height="37" fill="white"/>
</clipPath>
</defs>
</svg>
