<svg width="37" height="37" viewBox="0 0 37 37" fill="none" xmlns="http://www.w3.org/2000/svg">
<g clip-path="url(#clip0_602_13378)">
<path d="M34.1094 21.3906H26.5938V11.5625C26.5938 11.2434 26.3348 10.9844 26.0156 10.9844H21.3906C21.0715 10.9844 20.8125 11.2434 20.8125 11.5625C20.8125 11.8816 21.0715 12.1406 21.3906 12.1406H25.4375V21.3906H20.8125C20.4934 21.3906 20.2344 21.649 20.2344 21.9688V36.4219C20.2344 36.7416 20.4934 37 20.8125 37C21.1316 37 21.3906 36.7416 21.3906 36.4219V22.5469H33.5312V36.4219C33.5312 36.7416 33.7902 37 34.1094 37C34.4285 37 34.6875 36.7416 34.6875 36.4219V21.9688C34.6875 21.649 34.4285 21.3906 34.1094 21.3906Z" fill="black"/>
<path d="M10.9844 28.9062C10.6653 28.9062 10.4062 29.1647 10.4062 29.4844V36.4219C10.4062 36.7416 10.6653 37 10.9844 37C11.3035 37 11.5625 36.7416 11.5625 36.4219V29.4844C11.5625 29.1647 11.3035 28.9062 10.9844 28.9062Z" fill="black"/>
<path d="M16.1875 11.5625C16.1875 11.2434 15.9285 10.9844 15.6094 10.9844H10.9844C10.6652 10.9844 10.4062 11.2434 10.4062 11.5625V16.7656H2.3125C1.99338 16.7656 1.73438 17.0246 1.73438 17.3438V36.4219C1.73438 36.7416 1.99338 37 2.3125 37C2.63162 37 2.89062 36.7416 2.89062 36.4219V17.9219H10.4062V24.8594C10.4062 25.1791 10.6652 25.4375 10.9844 25.4375C11.3035 25.4375 11.5625 25.1791 11.5625 24.8594V12.1406H15.6094C15.9285 12.1406 16.1875 11.8816 16.1875 11.5625Z" fill="black"/>
<path d="M4.64697 14.034C4.71808 14.282 4.9447 14.4531 5.20255 14.4531C5.46039 14.4531 5.68759 14.282 5.75812 14.034L6.83633 10.2594L9.46391 9.20895C9.68302 9.12108 9.82697 8.90833 9.82697 8.67188C9.82697 8.43542 9.68302 8.22325 9.46391 8.1348L6.83633 7.08434L5.75812 3.30977C5.68702 3.06175 5.46039 2.89062 5.20255 2.89062C4.9447 2.89062 4.7175 3.06175 4.64697 3.30977L3.56877 7.08434L0.941187 8.1348C0.722078 8.22267 0.578125 8.43542 0.578125 8.67188C0.578125 8.90833 0.722078 9.1205 0.941187 9.20895L3.56877 10.2594L4.64697 14.034ZM4.26136 8.0527C4.42728 7.98622 4.55331 7.84689 4.60245 7.67461L5.20312 5.57313L5.8038 7.67461C5.85294 7.84631 5.97897 7.98622 6.14489 8.0527L7.69369 8.67188L6.14489 9.29105C5.97897 9.35753 5.85294 9.49686 5.8038 9.66914L5.20312 11.7706L4.60245 9.66914C4.55331 9.49744 4.42728 9.35753 4.26136 9.29105L2.71256 8.67188L4.26136 8.0527Z" fill="black"/>
<path d="M36.0596 9.29105L33.432 8.24059L32.3538 4.46602C32.2827 4.218 32.0561 4.04688 31.7983 4.04688C31.5404 4.04688 31.3132 4.218 31.2427 4.46602L30.1645 8.24059L27.5369 9.29105C27.3178 9.37892 27.1738 9.59167 27.1738 9.82812C27.1738 10.0646 27.3178 10.2768 27.5369 10.3652L30.1645 11.4157L31.2427 15.1902C31.3138 15.4382 31.5404 15.6094 31.7983 15.6094C32.0561 15.6094 32.2833 15.4382 32.3538 15.1902L33.432 11.4157L36.0596 10.3652C36.2787 10.2773 36.4227 10.0646 36.4227 9.82812C36.4227 9.59167 36.2787 9.3795 36.0596 9.29105ZM32.7394 10.4473C32.5735 10.5138 32.4475 10.6531 32.3983 10.8254L31.7977 12.9269L31.197 10.8254C31.1479 10.6537 31.0218 10.5138 30.8559 10.4473L29.3071 9.82812L30.8559 9.20895C31.0218 9.14247 31.1479 9.00314 31.197 8.83086L31.7977 6.72938L32.3983 8.83086C32.4475 9.00256 32.5735 9.14247 32.7394 9.20895L34.2882 9.82812L32.7394 10.4473Z" fill="black"/>
<path d="M19.6942 11.7648L20.6955 9.08755L23.9607 7.45492C24.1567 7.35722 24.2805 7.15661 24.2805 6.9375C24.2805 6.71839 24.1567 6.51836 23.9607 6.42008L20.6949 4.78745L19.0403 0.375203C18.9559 0.149734 18.7397 0 18.4986 0C18.2575 0 18.0419 0.149734 17.9569 0.375203L16.3023 4.78745L13.0365 6.42008C12.8405 6.51778 12.7168 6.71839 12.7168 6.9375C12.7168 7.15661 12.8405 7.35664 13.0365 7.45492L16.3023 9.08813L17.9563 13.4992C18.0408 13.7253 18.2564 13.875 18.4975 13.875C18.7385 13.875 18.9542 13.7258 19.0392 13.501L19.6925 11.7666V11.7654L19.6942 11.7648ZM18.5021 11.6504L17.3065 8.46838C17.2551 8.33194 17.1545 8.21978 17.0238 8.15503L14.5893 6.93808L17.0238 5.72113C17.1545 5.6558 17.2551 5.54364 17.3065 5.4072L18.4992 2.22578L19.6919 5.4072C19.7433 5.54364 19.8445 5.65637 19.9746 5.72113L22.4091 6.93808L19.9746 8.15503C19.8439 8.22036 19.7428 8.33309 19.6919 8.46953L18.5009 11.6504H18.5021Z" fill="black"/>
<path d="M17.9219 20.2344H14.4531C14.134 20.2344 13.875 20.4928 13.875 20.8125V24.2812C13.875 24.601 14.134 24.8594 14.4531 24.8594H17.9219C18.241 24.8594 18.5 24.601 18.5 24.2812V20.8125C18.5 20.4928 18.241 20.2344 17.9219 20.2344ZM17.3438 23.7031H15.0312V21.3906H17.3438V23.7031Z" fill="black"/>
<path d="M27.75 25.4375C27.75 25.1178 27.491 24.8594 27.1719 24.8594H23.7031C23.384 24.8594 23.125 25.1178 23.125 25.4375V28.9062C23.125 29.226 23.384 29.4844 23.7031 29.4844H27.1719C27.491 29.4844 27.75 29.226 27.75 28.9062V25.4375ZM26.5938 28.3281H24.2812V26.0156H26.5938V28.3281Z" fill="black"/>
<path d="M31.7969 30.6406H28.3281C28.009 30.6406 27.75 30.899 27.75 31.2188V34.6875C27.75 35.0072 28.009 35.2656 28.3281 35.2656H31.7969C32.116 35.2656 32.375 35.0072 32.375 34.6875V31.2188C32.375 30.899 32.116 30.6406 31.7969 30.6406ZM31.2188 34.1094H28.9062V31.7969H31.2188V34.1094Z" fill="black"/>
<path d="M17.9219 28.9062H14.4531C14.134 28.9062 13.875 29.1647 13.875 29.4844V32.9531C13.875 33.2728 14.134 33.5312 14.4531 33.5312H17.9219C18.241 33.5312 18.5 33.2728 18.5 32.9531V29.4844C18.5 29.1647 18.241 28.9062 17.9219 28.9062ZM17.3438 32.375H15.0312V30.0625H17.3438V32.375Z" fill="black"/>
<path d="M8.67188 23.125H5.20312C4.884 23.125 4.625 23.3834 4.625 23.7031V27.1719C4.625 27.4916 4.884 27.75 5.20312 27.75H8.67188C8.991 27.75 9.25 27.4916 9.25 27.1719V23.7031C9.25 23.3834 8.991 23.125 8.67188 23.125ZM8.09375 26.5938H5.78125V24.2812H8.09375V26.5938Z" fill="black"/>
<path d="M23.7031 19.0781V15.6094C23.7031 15.2903 23.4441 15.0312 23.125 15.0312H19.6562C19.3371 15.0312 19.0781 15.2903 19.0781 15.6094V19.0781C19.0781 19.3978 19.3371 19.6562 19.6562 19.6562H23.125C23.4441 19.6562 23.7031 19.3978 23.7031 19.0781ZM22.5469 18.5H20.2344V16.1875H22.5469V18.5Z" fill="black"/>
<path d="M10.9844 27.75C11.3037 27.75 11.5625 27.4912 11.5625 27.1719C11.5625 26.8526 11.3037 26.5938 10.9844 26.5938C10.6651 26.5938 10.4062 26.8526 10.4062 27.1719C10.4062 27.4912 10.6651 27.75 10.9844 27.75Z" fill="black"/>
</g>
<defs>
<clipPath id="clip0_602_13378">
<rect width="37" height="37" fill="white"/>
</clipPath>
</defs>
</svg>
