<svg width="42" height="42" viewBox="0 0 42 42" fill="none" xmlns="http://www.w3.org/2000/svg">
<path d="M37.8701 16.5984C36.1803 14.9092 33.8889 13.9603 31.4996 13.9603C29.1103 13.9603 26.8188 14.9092 25.129 16.5984L10.3634 31.3641C10.0633 31.6643 9.65975 31.8384 9.23544 31.8507C8.81112 31.8631 8.39815 31.7127 8.08108 31.4305C7.76402 31.1482 7.56686 30.7554 7.53 30.3325C7.49313 29.9096 7.61935 29.4886 7.88279 29.1558L8.06654 29.3396C8.18979 29.4625 8.35676 29.5315 8.53083 29.5315C8.7049 29.5315 8.87186 29.4625 8.99512 29.3396L10.9639 27.3708C11.0868 27.2475 11.1558 27.0806 11.1558 26.9065C11.1558 26.7324 11.0868 26.5654 10.9639 26.4422L10.7719 26.2502L17.5264 19.4958C17.6493 19.3725 17.7183 19.2056 17.7183 19.0315C17.7183 18.8574 17.6493 18.6904 17.5264 18.5672L17.3344 18.3752L18.3746 17.3351L18.5665 17.527C18.6898 17.65 18.8568 17.719 19.0308 17.719C19.2049 17.719 19.3719 17.65 19.4951 17.527L21.3884 15.6338L25.2308 13.7126C25.3238 13.666 25.4044 13.598 25.466 13.5142C25.5276 13.4303 25.5684 13.3331 25.5851 13.2304C25.6018 13.1277 25.5938 13.0225 25.5618 12.9235C25.5299 12.8245 25.4749 12.7345 25.4014 12.6609L20.1514 7.41093C20.0778 7.3374 19.9878 7.28241 19.8888 7.25047C19.7898 7.21853 19.6846 7.21057 19.5819 7.22723C19.4792 7.24389 19.382 7.2847 19.2981 7.3463C19.2143 7.40791 19.1463 7.48854 19.0997 7.58156L17.1786 11.4239L15.2853 13.3172C15.1624 13.4404 15.0933 13.6074 15.0933 13.7815C15.0933 13.9556 15.1624 14.1225 15.2853 14.2458L15.4772 14.4377L14.4371 15.4779L14.2451 15.2859C14.1219 15.163 13.9549 15.094 13.7808 15.094C13.6068 15.094 13.4398 15.163 13.3165 15.2859L12.0418 16.5607C11.5998 16.4021 11.1234 16.365 10.6623 16.4533C10.2011 16.5416 9.77212 16.7521 9.42005 17.0627H5.90583C5.38368 17.0627 4.88292 17.2702 4.51371 17.6394C4.1445 18.0086 3.93708 18.5093 3.93708 19.0315C3.93708 19.5536 4.1445 20.0544 4.51371 20.4236C4.88292 20.7928 5.38368 21.0002 5.90583 21.0002H7.60223L6.56208 22.0404L6.37012 21.8484C6.24687 21.7255 6.0799 21.6565 5.90583 21.6565C5.73176 21.6565 5.56479 21.7255 5.44154 21.8484L3.47279 23.8172C3.34986 23.9404 3.28083 24.1074 3.28083 24.2815C3.28083 24.4556 3.34986 24.6225 3.47279 24.7458L3.66638 24.9394C2.28617 26.3915 1.5336 28.3289 1.57169 30.332C1.60978 32.335 2.43546 34.2424 3.86988 35.641C5.3043 37.0396 7.23197 37.8168 9.23534 37.8043C11.2387 37.7917 13.1565 36.9904 14.5733 35.5739L29.0108 21.1364C29.4968 20.6504 30.156 20.3773 30.8433 20.3773C31.5307 20.3773 32.1899 20.6504 32.6759 21.1364C33.1619 21.6224 33.435 22.2816 33.435 22.969C33.435 23.6563 33.1619 24.3155 32.6759 24.8016L17.9103 39.5672L18.8389 40.4958L33.6045 25.7302C34.3365 24.9978 34.7476 24.0047 34.7474 22.9692C34.7473 21.9338 34.3359 20.9408 33.6037 20.2086C32.8716 19.4764 31.8786 19.0651 30.8431 19.0649C29.8077 19.0647 28.8146 19.4758 28.0822 20.2078L13.6447 34.6453C12.4744 35.816 10.8905 36.4794 9.23523 36.4922C7.57993 36.505 5.98602 35.8662 4.79776 34.7137C3.60951 33.5612 2.92227 31.9875 2.88448 30.3326C2.84669 28.6777 3.46138 27.0743 4.59579 25.8688L6.95091 28.2239C6.4409 28.8045 6.17669 29.5607 6.21415 30.3326C6.25161 31.1044 6.58781 31.8315 7.15165 32.3599C7.71549 32.8884 8.46276 33.1769 9.23544 33.1643C10.0081 33.1518 10.7456 32.8392 11.292 32.2927L26.0576 17.527C26.772 16.8112 27.6205 16.2431 28.5545 15.8554C29.4886 15.4676 30.4899 15.2677 31.5012 15.2672C32.5126 15.2667 33.5141 15.4655 34.4486 15.8523C35.383 16.2391 36.2321 16.8062 36.9472 17.5213C37.6623 18.2365 38.2295 19.0855 38.6163 20.02C39.0031 20.9544 39.2019 21.956 39.2013 22.9673C39.2008 23.9787 39.001 24.98 38.6132 25.914C38.2255 26.8481 37.6574 27.6966 36.9415 28.4109L25.7853 39.5672L26.7139 40.4958L37.8701 29.3396C39.5593 27.6498 40.5083 25.3583 40.5083 22.969C40.5083 20.5797 39.5593 18.2882 37.8701 16.5984ZM19.8667 8.98266L23.8297 12.9456L21.1292 14.2958L18.5165 11.6831L19.8667 8.98266ZM17.7183 12.7413L20.071 15.094L19.0308 16.135L16.6774 13.7815L17.7183 12.7413ZM16.4058 15.3663L17.446 16.4065L16.4058 17.4466L15.3657 16.4065L16.4058 15.3663ZM5.90583 19.6877C5.73178 19.6877 5.56486 19.6186 5.44179 19.4955C5.31872 19.3725 5.24958 19.2055 5.24958 19.0315C5.24958 18.8574 5.31872 18.6905 5.44179 18.5675C5.56486 18.4444 5.73178 18.3752 5.90583 18.3752H9.68912C9.78146 18.3753 9.87277 18.3559 9.95704 18.3181C10.0413 18.2804 10.1166 18.2252 10.178 18.1562C10.3553 17.9582 10.5884 17.8186 10.8467 17.756C11.105 17.6934 11.3762 17.7107 11.6245 17.8055C11.8727 17.9004 12.0863 18.0684 12.237 18.2873C12.3877 18.5062 12.4684 18.7657 12.4684 19.0315C12.4684 19.2973 12.3877 19.5568 12.237 19.7757C12.0863 19.9946 11.8727 20.1626 11.6245 20.2574C11.3762 20.3523 11.105 20.3696 10.8467 20.307C10.5884 20.2443 10.3553 20.1048 10.178 19.9068C10.1166 19.8378 10.0413 19.7826 9.95704 19.7449C9.87277 19.7071 9.78146 19.6876 9.68912 19.6877H5.90583ZM9.44138 21.0183C9.92026 21.43 10.5309 21.6564 11.1624 21.6565C11.2556 21.6566 11.3487 21.6514 11.4413 21.6409C11.917 21.5892 12.3696 21.4084 12.75 21.118C13.1303 20.8276 13.424 20.4387 13.5992 19.9934C13.7744 19.548 13.8245 19.0633 13.744 18.5915C13.6636 18.1198 13.4556 17.6791 13.1426 17.317L13.7808 16.678L16.1343 19.0315L9.84333 25.3217L7.49068 22.969L9.44138 21.0183ZM4.86486 24.2815L5.90583 23.2405L9.5718 26.9065L8.53083 27.9475L4.86486 24.2815Z" fill="#111111"/>
<path d="M23.0859 2.5L23.7419 1.58093L24.8102 2.34345L24.1542 3.26251L23.0859 2.5Z" fill="#111111"/>
<path d="M20.4609 6.17188L22.4289 3.41473L23.4972 4.1773L21.5293 6.93444L20.4609 6.17188Z" fill="#111111"/>
<path d="M25.3848 4.16797L27.7168 1.54444L28.6972 2.41594L26.3652 5.03947L25.3848 4.16797Z" fill="#111111"/>
<path d="M22.4668 7.44531L23.7786 5.96957L24.759 6.84107L23.4472 8.31681L22.4668 7.44531Z" fill="#111111"/>
<path d="M32.377 2.58594L33.689 1.46059L34.5434 2.45678L33.2314 3.58212L32.377 2.58594Z" fill="#111111"/>
<path d="M27.7852 6.52344L30.4092 4.27274L31.2637 5.26893L28.6396 7.51963L27.7852 6.52344Z" fill="#111111"/>
<path d="M24.5059 9.33594L26.0366 8.02299L26.8911 9.01917L25.3603 10.3321L24.5059 9.33594Z" fill="#111111"/>
<path d="M38.3633 4.14062L39.675 3.35236L40.351 4.47724L39.0393 5.26551L38.3633 4.14062Z" fill="#111111"/>
<path d="M34.4297 6.50391L36.3973 5.32148L37.0733 6.44636L35.1057 7.62879L34.4297 6.50391Z" fill="#111111"/>
<path d="M30.9316 8.60547L33.1179 7.29166L33.7939 8.41654L31.6076 9.73035L30.9316 8.60547Z" fill="#111111"/>
<path d="M26.5605 11.2305L29.8399 9.25977L30.5159 10.3847L27.2365 12.3554L26.5605 11.2305Z" fill="#111111"/>
</svg>
