<svg width="38" height="38" viewBox="0 0 38 38" fill="none" xmlns="http://www.w3.org/2000/svg">
<path d="M4.78176 6.73034L8.90187 6.03365C9.04506 6.00946 9.173 5.92841 9.25744 5.80825C9.34188 5.68816 9.37589 5.53891 9.3521 5.39322L8.90275 2.64512C8.85312 2.34194 8.57119 2.1368 8.27306 2.18734L4.15295 2.88403C4.00976 2.90823 3.88189 2.98927 3.79738 3.10943C3.71294 3.22952 3.67893 3.37885 3.70272 3.52447L4.15207 6.27264C4.22651 6.49707 4.34102 6.75966 4.78176 6.73034ZM7.9126 3.37684L8.18234 5.0268L5.14214 5.54091L4.87233 3.89096L7.9126 3.37684Z" fill="#111111"/>
<path d="M34.2674 8.44804C34.8048 8.05736 35.1603 7.47809 35.2684 6.8168L35.7804 3.68584C36.0039 2.31904 35.0923 1.02223 33.7483 0.794976L29.2517 0.0345377C28.6015 -0.075305 27.9474 0.0792169 27.41 0.469826C26.8726 0.86051 26.5171 1.43986 26.409 2.10114L26.0357 4.3846L20.2216 11.1331C19.9901 11.1145 17.4726 11.1339 17.2765 11.1272L11.2995 4.19067L10.9579 2.10121C10.8498 1.43993 10.4942 0.860584 9.95685 0.469901C9.41949 0.0792169 8.76558 -0.0755277 8.11517 0.0346119L3.61852 0.794901C2.27457 1.02216 1.36297 2.31904 1.58643 3.68577L2.0984 6.81673C2.20648 7.47801 2.56204 8.05736 3.0994 8.44797C3.40308 8.66877 3.74434 8.81267 4.10078 8.87754L5.91837 19.9957C5.37021 20.3689 5.05573 21.0457 5.17083 21.7494C5.24673 22.2135 5.49581 22.6198 5.87217 22.8935C6.04558 23.0196 6.23671 23.1094 6.43683 23.1632L7.55599 30.0096H5.82196C5.54996 29.3984 4.94488 28.9718 4.24338 28.9718C3.28828 28.9718 2.51125 29.762 2.51125 30.7333V35.6057C2.51125 36.577 3.28828 37.3672 4.24338 37.3672C5.19849 37.3672 5.97551 36.577 5.97551 35.6057V31.1229H15.2484V35.216H7.99745C7.69517 35.216 7.4501 35.4653 7.4501 35.7727C7.4501 36.0801 7.69517 36.3293 7.99745 36.3293H27.3838C27.725 37.3019 28.6394 38 29.7115 38H32.8325C34.195 38 35.3034 36.8727 35.3034 35.4872V30.8516C35.3034 29.4661 34.195 28.3389 32.8325 28.3389H29.7115C28.6394 28.3389 27.725 29.0371 27.3838 30.0096H24.6218L25.8554 22.4629L29.8251 23.1342L29.3198 26.2252C29.2702 26.5284 29.4718 26.8151 29.77 26.8655C29.8004 26.8707 29.8306 26.8732 29.8604 26.8732C30.1233 26.8732 30.3551 26.6801 30.3997 26.4078L30.9301 23.1628C31.5678 22.9902 32.0809 22.4532 32.1961 21.7494C32.3111 21.0457 31.9967 20.3689 31.4485 19.9957L33.2661 8.87754C33.6225 8.81267 33.9637 8.66877 34.2674 8.44804ZM26.4241 18.9877L28.193 8.16765L32.1626 8.83887L30.3937 19.6589L26.4241 18.9877ZM24.7537 19.2283C24.6505 19.3033 24.558 19.389 24.4748 19.4825L21.1261 15.596C21.184 15.4594 21.2163 15.3092 21.2163 15.1513V12.2548C21.2163 12.0874 21.1792 11.9289 21.1146 11.7859L25.9246 6.20287C25.9966 6.52327 26.1311 6.82927 26.325 7.10507C26.5424 7.41426 26.8191 7.66408 27.1362 7.84279L25.3194 18.9575C25.1189 19.0113 24.9275 19.102 24.7537 19.2283ZM12.9591 19.5627C12.7629 19.3224 12.5012 19.0973 12.0475 18.9575L10.2303 7.84153C10.8814 7.47356 11.3383 6.82029 11.4664 6.07358L16.3031 11.6866C16.2067 11.8537 16.1505 12.0475 16.1505 12.2548V15.1513C16.1505 15.3492 16.2013 15.5351 16.2896 15.697L12.9591 19.5627ZM6.97302 19.659L5.2041 8.8388L9.17384 8.16757L10.9426 18.9877L6.97302 19.659ZM17.2593 15.1657C17.2515 15.1657 17.2451 15.1593 17.2451 15.1513V12.2548C17.2451 12.2469 17.2515 12.2404 17.2593 12.2404H20.1074C20.1111 12.2404 20.1143 12.2421 20.1168 12.2444C20.117 12.2445 20.1173 12.2447 20.1175 12.2449C20.12 12.2475 20.1216 12.251 20.1216 12.2548V15.1513C20.1216 15.1592 20.1152 15.1657 20.1074 15.1657H17.2593V15.1657ZM27.4889 2.28372C27.6226 1.6228 28.2267 0.993657 29.072 1.13274L33.5686 1.89311C34.3172 2.01972 34.8249 2.74201 34.7004 3.50319L34.1885 6.63415C34.1283 7.00213 33.9302 7.3246 33.6307 7.54236C33.3311 7.76011 32.9668 7.84636 32.6052 7.78513L28.1087 7.02476C27.7469 6.96361 27.4297 6.7621 27.2156 6.45759C27.0015 6.153 26.9168 5.78265 26.9769 5.41468L27.4889 2.28372ZM3.17822 6.63415L2.66626 3.50319C2.54176 2.74194 3.04949 2.01965 3.79798 1.89311L8.29456 1.13274C8.88906 1.00939 9.77717 1.4763 9.87774 2.28372L10.3897 5.41468C10.5142 6.17593 10.0065 6.89822 9.25791 7.02476L4.76133 7.78513C4.39934 7.84643 4.03531 7.76011 3.7358 7.54236C3.43628 7.3246 3.23843 7.00213 3.17822 6.63415ZM6.36085 21.0835C6.45989 20.9426 6.60695 20.8494 6.7748 20.821L11.5012 20.0218C11.7369 19.9782 12.1514 20.124 12.2345 20.5549C12.2922 20.9075 12.057 21.242 11.7103 21.3007L6.98397 22.0999C6.81618 22.1282 6.6473 22.0885 6.50879 21.9878C6.37027 21.8871 6.2786 21.7375 6.25065 21.5667C6.2227 21.396 6.26189 21.2243 6.36085 21.0835ZM7.54176 23.1342L11.5113 22.4629L12.7449 30.0097H8.66574L7.54176 23.1342ZM4.8808 35.6057C4.8808 35.9631 4.59486 36.2539 4.24338 36.2539C3.89191 36.2539 3.60597 35.9631 3.60597 35.6057V30.7333C3.60597 30.3758 3.89191 30.085 4.24338 30.085C4.59486 30.085 4.8808 30.3758 4.8808 30.7333V35.6057ZM21.0236 31.1232V35.2157H16.3431V31.1232H21.0236ZM22.1183 31.1229H27.2407V35.216H22.1183V31.1229ZM29.7115 29.4522H32.8325C33.5913 29.4522 34.2087 30.08 34.2087 30.8516V35.4872C34.2087 36.2589 33.5913 36.8867 32.8325 36.8867H29.7115C28.9527 36.8867 28.3354 36.2589 28.3354 35.4872V30.8516C28.3354 30.08 28.9527 29.4522 29.7115 29.4522ZM13.8547 30.0096L12.5661 22.1265C12.9966 21.8338 13.2831 21.354 13.3308 20.8206L17.2443 16.2782C17.6864 16.2717 19.8775 16.2958 20.2502 16.2685L24.0288 20.6541C24.0266 21.0221 24.1374 21.3805 24.3519 21.6856C24.4758 21.862 24.6285 22.0094 24.8007 22.1262L23.5121 30.0096H13.8547ZM31.1161 21.5667C31.0584 21.9194 30.7289 22.1583 30.3828 22.0999L25.6565 21.3006C25.4885 21.2722 25.3415 21.179 25.2424 21.0381C25.144 20.8982 25.1049 20.7279 25.1318 20.5582C25.2268 20.2941 25.3198 19.9986 25.8655 20.0217L30.5919 20.8209C30.9386 20.8796 31.1738 21.2142 31.1161 21.5667Z" fill="#111111"/>
<path d="M28.4634 6.03363L32.5835 6.73033C32.786 6.76729 33.1413 6.6426 33.2133 6.27254L33.6626 3.52437C33.7122 3.22111 33.5106 2.93441 33.2124 2.88401L29.0924 2.18732C28.7934 2.13685 28.5122 2.34192 28.4626 2.6451L28.0133 5.3932C27.9895 5.53882 28.0236 5.68815 28.1079 5.80823C28.1924 5.92839 28.3202 6.00944 28.4634 6.03363ZM29.4528 3.37683L32.4929 3.89094L32.2232 5.5409L29.183 5.02678L29.4528 3.37683Z" fill="#111111"/>
<path d="M29.9028 35.849H32.6423C32.9446 35.849 33.1896 35.5998 33.1896 35.2924V31.0449C33.1896 30.7375 32.9446 30.4883 32.6423 30.4883H29.9028C29.6005 30.4883 29.3555 30.7375 29.3555 31.0449V35.2924C29.3555 35.5998 29.6005 35.849 29.9028 35.849ZM32.0949 31.6016V34.7358H30.4502V33.7658H30.805C31.1073 33.7658 31.3523 33.5166 31.3523 33.2091C31.3523 32.9017 31.1073 32.6525 30.805 32.6525H30.4502V31.6017H32.0949V31.6016Z" fill="#111111"/>
<path d="M18.6841 34.0939C18.9864 34.0939 19.2314 33.8447 19.2314 33.5373V32.8848C19.2314 32.5774 18.9864 32.3281 18.6841 32.3281C18.3818 32.3281 18.1367 32.5774 18.1367 32.8848V33.5373C18.1367 33.8447 18.3818 34.0939 18.6841 34.0939Z" fill="#111111"/>
</svg>
