<svg width="39" height="39" viewBox="0 0 39 39" fill="none" xmlns="http://www.w3.org/2000/svg">
<g clip-path="url(#clip0_602_13366)">
<path d="M29.25 34.7344H27.4219V19.5C27.4219 19.3384 27.3577 19.1834 27.2434 19.0691C27.1291 18.9548 26.9741 18.8906 26.8125 18.8906H18.8906V9.14062H19.5C19.6616 9.14062 19.8166 9.07642 19.9309 8.96214C20.0452 8.84786 20.1094 8.69287 20.1094 8.53125V6.09375C20.1094 5.93213 20.0452 5.77714 19.9309 5.66286C19.8166 5.54858 19.6616 5.48438 19.5 5.48438H2.4375C2.27588 5.48438 2.12089 5.54858 2.00661 5.66286C1.89233 5.77714 1.82812 5.93213 1.82812 6.09375V8.53125C1.82812 8.69287 1.89233 8.84786 2.00661 8.96214C2.12089 9.07642 2.27588 9.14062 2.4375 9.14062H3.04688V34.7344H1.21875C1.05713 34.7344 0.902137 34.7986 0.787857 34.9129C0.673577 35.0271 0.609375 35.1821 0.609375 35.3438V37.7812C0.609375 37.9429 0.673577 38.0979 0.787857 38.2121C0.902137 38.3264 1.05713 38.3906 1.21875 38.3906H29.25C29.4116 38.3906 29.5666 38.3264 29.6809 38.2121C29.7952 38.0979 29.8594 37.9429 29.8594 37.7812V35.3438C29.8594 35.1821 29.7952 35.0271 29.6809 34.9129C29.5666 34.7986 29.4116 34.7344 29.25 34.7344ZM26.2031 34.7344H22.5469V32.9062C22.5469 32.4214 22.3543 31.9564 22.0114 31.6136C21.6686 31.2707 21.2036 31.0781 20.7188 31.0781C20.2339 31.0781 19.7689 31.2707 19.4261 31.6136C19.0832 31.9564 18.8906 32.4214 18.8906 32.9062V34.7344H15.2344V20.1094H26.2031V34.7344ZM21.3281 34.7344H20.1094V32.9062C20.1094 32.7446 20.1736 32.5896 20.2879 32.4754C20.4021 32.3611 20.5571 32.2969 20.7188 32.2969C20.8804 32.2969 21.0354 32.3611 21.1496 32.4754C21.2639 32.5896 21.3281 32.7446 21.3281 32.9062V34.7344ZM15.2344 18.8906H14.625C14.4634 18.8906 14.3084 18.9548 14.1941 19.0691C14.0798 19.1834 14.0156 19.3384 14.0156 19.5V20.1094H12.7969V17.6719H15.2344V18.8906ZM14.0156 26.2031H12.7969V23.7656H14.0156V26.2031ZM14.0156 34.7344H12.7969V32.2969C12.7969 31.9736 12.9253 31.6636 13.1538 31.4351C13.3824 31.2065 13.6924 31.0781 14.0156 31.0781V34.7344ZM3.04688 6.70312H18.8906V7.92188H3.04688V6.70312ZM4.26562 9.14062H17.6719V18.8906H16.4531V17.0625C16.4531 16.9009 16.3889 16.7459 16.2746 16.6316C16.1604 16.5173 16.0054 16.4531 15.8438 16.4531H12.1875C12.0259 16.4531 11.8709 16.5173 11.7566 16.6316C11.6423 16.7459 11.5781 16.9009 11.5781 17.0625V20.7188C11.5781 20.8804 11.6423 21.0354 11.7566 21.1496C11.8709 21.2639 12.0259 21.3281 12.1875 21.3281H14.0156V22.5469H12.1875C12.0259 22.5469 11.8709 22.6111 11.7566 22.7254C11.6423 22.8396 11.5781 22.9946 11.5781 23.1562V26.8125C11.5781 26.9741 11.6423 27.1291 11.7566 27.2434C11.8709 27.3577 12.0259 27.4219 12.1875 27.4219H14.0156V29.8594C13.3692 29.8594 12.7492 30.1162 12.2921 30.5733C11.8349 31.0304 11.5781 31.6504 11.5781 32.2969V34.7344H10.3594V32.2969C10.3594 31.6504 10.1026 31.0304 9.64545 30.5733C9.18833 30.1162 8.56834 29.8594 7.92188 29.8594C7.27541 29.8594 6.65542 30.1162 6.1983 30.5733C5.74118 31.0304 5.48438 31.6504 5.48438 32.2969V34.7344H4.26562V9.14062ZM9.14062 34.7344H6.70312V32.2969C6.70312 31.9736 6.83153 31.6636 7.06009 31.4351C7.28865 31.2065 7.59864 31.0781 7.92188 31.0781C8.24511 31.0781 8.5551 31.2065 8.78366 31.4351C9.01222 31.6636 9.14062 31.9736 9.14062 32.2969V34.7344ZM28.6406 37.1719H1.82812V35.9531H28.6406V37.1719Z" fill="black"/>
<path d="M6.09375 15.2344H9.75C9.91162 15.2344 10.0666 15.1702 10.1809 15.0559C10.2952 14.9416 10.3594 14.7866 10.3594 14.625V10.9688C10.3594 10.8071 10.2952 10.6521 10.1809 10.5379C10.0666 10.4236 9.91162 10.3594 9.75 10.3594H6.09375C5.93213 10.3594 5.77714 10.4236 5.66286 10.5379C5.54858 10.6521 5.48438 10.8071 5.48438 10.9688V14.625C5.48438 14.7866 5.54858 14.9416 5.66286 15.0559C5.77714 15.1702 5.93213 15.2344 6.09375 15.2344ZM6.70312 11.5781H9.14062V14.0156H6.70312V11.5781Z" fill="black"/>
<path d="M12.1875 15.2344H15.8438C16.0054 15.2344 16.1604 15.1702 16.2746 15.0559C16.3889 14.9416 16.4531 14.7866 16.4531 14.625V10.9688C16.4531 10.8071 16.3889 10.6521 16.2746 10.5379C16.1604 10.4236 16.0054 10.3594 15.8438 10.3594H12.1875C12.0259 10.3594 11.8709 10.4236 11.7566 10.5379C11.6423 10.6521 11.5781 10.8071 11.5781 10.9688V14.625C11.5781 14.7866 11.6423 14.9416 11.7566 15.0559C11.8709 15.1702 12.0259 15.2344 12.1875 15.2344ZM12.7969 11.5781H15.2344V14.0156H12.7969V11.5781Z" fill="black"/>
<path d="M6.09375 21.3281H9.75C9.91162 21.3281 10.0666 21.2639 10.1809 21.1496C10.2952 21.0354 10.3594 20.8804 10.3594 20.7188V17.0625C10.3594 16.9009 10.2952 16.7459 10.1809 16.6316C10.0666 16.5173 9.91162 16.4531 9.75 16.4531H6.09375C5.93213 16.4531 5.77714 16.5173 5.66286 16.6316C5.54858 16.7459 5.48438 16.9009 5.48438 17.0625V20.7188C5.48438 20.8804 5.54858 21.0354 5.66286 21.1496C5.77714 21.2639 5.93213 21.3281 6.09375 21.3281ZM6.70312 17.6719H9.14062V20.1094H6.70312V17.6719Z" fill="black"/>
<path d="M6.09375 27.4219H9.75C9.91162 27.4219 10.0666 27.3577 10.1809 27.2434C10.2952 27.1291 10.3594 26.9741 10.3594 26.8125V23.1562C10.3594 22.9946 10.2952 22.8396 10.1809 22.7254C10.0666 22.6111 9.91162 22.5469 9.75 22.5469H6.09375C5.93213 22.5469 5.77714 22.6111 5.66286 22.7254C5.54858 22.8396 5.48438 22.9946 5.48438 23.1562V26.8125C5.48438 26.9741 5.54858 27.1291 5.66286 27.2434C5.77714 27.3577 5.93213 27.4219 6.09375 27.4219ZM6.70312 23.7656H9.14062V26.2031H6.70312V23.7656Z" fill="black"/>
<path d="M17.0625 24.9844H19.5C19.6616 24.9844 19.8166 24.9202 19.9309 24.8059C20.0452 24.6916 20.1094 24.5366 20.1094 24.375V21.9375C20.1094 21.7759 20.0452 21.6209 19.9309 21.5066C19.8166 21.3923 19.6616 21.3281 19.5 21.3281H17.0625C16.9009 21.3281 16.7459 21.3923 16.6316 21.5066C16.5173 21.6209 16.4531 21.7759 16.4531 21.9375V24.375C16.4531 24.5366 16.5173 24.6916 16.6316 24.8059C16.7459 24.9202 16.9009 24.9844 17.0625 24.9844ZM17.6719 22.5469H18.8906V23.7656H17.6719V22.5469Z" fill="black"/>
<path d="M17.0625 29.8594H19.5C19.6616 29.8594 19.8166 29.7952 19.9309 29.6809C20.0452 29.5666 20.1094 29.4116 20.1094 29.25V26.8125C20.1094 26.6509 20.0452 26.4959 19.9309 26.3816C19.8166 26.2673 19.6616 26.2031 19.5 26.2031H17.0625C16.9009 26.2031 16.7459 26.2673 16.6316 26.3816C16.5173 26.4959 16.4531 26.6509 16.4531 26.8125V29.25C16.4531 29.4116 16.5173 29.5666 16.6316 29.6809C16.7459 29.7952 16.9009 29.8594 17.0625 29.8594ZM17.6719 27.4219H18.8906V28.6406H17.6719V27.4219Z" fill="black"/>
<path d="M21.9375 29.8594H24.375C24.5366 29.8594 24.6916 29.7952 24.8059 29.6809C24.9202 29.5666 24.9844 29.4116 24.9844 29.25V26.8125C24.9844 26.6509 24.9202 26.4959 24.8059 26.3816C24.6916 26.2673 24.5366 26.2031 24.375 26.2031H21.9375C21.7759 26.2031 21.6209 26.2673 21.5066 26.3816C21.3923 26.4959 21.3281 26.6509 21.3281 26.8125V29.25C21.3281 29.4116 21.3923 29.5666 21.5066 29.6809C21.6209 29.7952 21.7759 29.8594 21.9375 29.8594ZM22.5469 27.4219H23.7656V28.6406H22.5469V27.4219Z" fill="black"/>
<path d="M21.9375 24.9844H24.375C24.5366 24.9844 24.6916 24.9202 24.8059 24.8059C24.9202 24.6916 24.9844 24.5366 24.9844 24.375V21.9375C24.9844 21.7759 24.9202 21.6209 24.8059 21.5066C24.6916 21.3923 24.5366 21.3281 24.375 21.3281H21.9375C21.7759 21.3281 21.6209 21.3923 21.5066 21.5066C21.3923 21.6209 21.3281 21.7759 21.3281 21.9375V24.375C21.3281 24.5366 21.3923 24.6916 21.5066 24.8059C21.6209 24.9202 21.7759 24.9844 21.9375 24.9844ZM22.5469 22.5469H23.7656V23.7656H22.5469V22.5469Z" fill="black"/>
<path d="M36.9933 2.00669C36.5514 1.56219 36.0257 1.20981 35.4466 0.969955C34.8675 0.730101 34.2466 0.607548 33.6198 0.609396H29.25C29.0884 0.609396 28.9334 0.673597 28.8191 0.787877C28.7048 0.902157 28.6406 1.05715 28.6406 1.21877V1.82815H27.4219V1.21877C27.4219 1.05715 27.3577 0.902157 27.2434 0.787877C27.1291 0.673597 26.9741 0.609396 26.8125 0.609396H24.375C24.2134 0.609396 24.0584 0.673597 23.9441 0.787877C23.8298 0.902157 23.7656 1.05715 23.7656 1.21877V7.31252C23.7656 7.47414 23.8298 7.62913 23.9441 7.74341C24.0584 7.85769 24.2134 7.92189 24.375 7.92189H26.8125C26.9741 7.92189 27.1291 7.85769 27.2434 7.74341C27.3577 7.62913 27.4219 7.47414 27.4219 7.31252V6.70314H28.6406V7.31252C28.6406 7.47414 28.7048 7.62913 28.8191 7.74341C28.9334 7.85769 29.0884 7.92189 29.25 7.92189V15.2344C29.0884 15.2344 28.9334 15.2986 28.8191 15.4129C28.7048 15.5272 28.6406 15.6822 28.6406 15.8438V29.25C28.6406 29.4116 28.7048 29.5666 28.8191 29.6809C28.9334 29.7952 29.0884 29.8594 29.25 29.8594H32.9062C33.0679 29.8594 33.2229 29.7952 33.3371 29.6809C33.4514 29.5666 33.5156 29.4116 33.5156 29.25V15.8438C33.5156 15.6822 33.4514 15.5272 33.3371 15.4129C33.2229 15.2986 33.0679 15.2344 32.9062 15.2344V7.92189C33.0679 7.92189 33.2229 7.85769 33.3371 7.74341C33.4514 7.62913 33.5156 7.47414 33.5156 7.31252V6.09377C33.5156 5.93215 33.5798 5.77716 33.6941 5.66288C33.8084 5.5486 33.9634 5.4844 34.125 5.4844C34.2866 5.4844 34.4416 5.5486 34.5559 5.66288C34.6702 5.77716 34.7344 5.93215 34.7344 6.09377V7.31252C34.7344 7.47414 34.7986 7.62913 34.9129 7.74341C35.0271 7.85769 35.1821 7.92189 35.3438 7.92189H37.7812C37.9429 7.92189 38.0979 7.85769 38.2121 7.74341C38.3264 7.62913 38.3906 7.47414 38.3906 7.31252V5.38019C38.3925 4.75341 38.2699 4.13249 38.0301 3.55341C37.7902 2.97433 37.4378 2.4486 36.9933 2.00669ZM26.2031 6.70314H24.9844V1.82815H26.2031V6.70314ZM27.4219 5.4844V3.0469H28.6406V5.4844H27.4219ZM32.2969 28.6406H29.8594V16.4531H32.2969V28.6406ZM31.6875 15.2344H30.4688V7.92189H31.6875V15.2344ZM37.1719 6.70314H35.9531V6.09377C35.9531 5.60892 35.7605 5.14393 35.4177 4.80109C35.0748 4.45825 34.6098 4.26565 34.125 4.26565C33.6402 4.26565 33.1752 4.45825 32.8323 4.80109C32.4895 5.14393 32.2969 5.60892 32.2969 6.09377V6.70314H29.8594V1.82815H33.6198C34.0863 1.82807 34.5482 1.91989 34.9792 2.09837C35.4102 2.27684 35.8018 2.53848 36.1317 2.86834C36.4615 3.19819 36.7232 3.5898 36.9017 4.02079C37.0801 4.45178 37.172 4.91371 37.1719 5.38019V6.70314Z" fill="black"/>
</g>
<defs>
<clipPath id="clip0_602_13366">
<rect width="39" height="39" fill="white"/>
</clipPath>
</defs>
</svg>
