<svg width="41" height="41" viewBox="0 0 41 41" fill="none" xmlns="http://www.w3.org/2000/svg">
<path d="M28.6831 33H20.6574C20.1065 33 19.6582 33.449 19.6582 34.001V38.0243C19.6582 38.356 19.927 38.6248 20.2588 38.6248C20.5906 38.6248 20.8594 38.356 20.8594 38.0243V34.2012H28.481V38.0243C28.481 38.356 28.7499 38.6248 29.0816 38.6248C29.4134 38.6248 29.6822 38.356 29.6822 38.0243V34.001C29.6822 33.4491 29.234 33 28.6831 33Z" fill="#111111"/>
<path d="M39.5805 37.8019L36.3396 29.603C34.5398 25.0613 31.7941 22.8596 29.4127 21.7991C31.2075 20.764 32.4198 18.8212 32.4198 16.5983V14.8442C33.6015 14.5405 34.4615 13.4859 34.4615 12.2335C34.4615 11.8721 34.3882 11.5196 34.2499 11.1934C34.4949 11.0001 34.653 10.7014 34.653 10.366V8.5027C34.653 7.92117 34.1795 7.44807 33.5975 7.44807H32.4198V1.51107C32.4198 0.677861 31.7438 0 30.9128 0H18.4285C17.5975 0 16.9215 0.677861 16.9215 1.51107V3.40492C16.9215 3.73669 17.1903 4.00551 17.5221 4.00551C17.8539 4.00551 18.1227 3.73669 18.1227 3.40492V1.51107C18.1227 1.34019 18.2599 1.20117 18.4285 1.20117H30.9128C31.0814 1.20117 31.2186 1.34019 31.2186 1.51107V16.5983C31.2186 19.2415 29.0789 21.3919 26.449 21.3919H22.8923C20.2623 21.3919 18.1227 19.2415 18.1227 16.5983V6.06055C18.1227 5.72879 17.8539 5.45997 17.5221 5.45997C17.1903 5.45997 16.9215 5.72879 16.9215 6.06055V7.44807H15.744C15.162 7.44807 14.6886 7.92117 14.6886 8.5027V10.3662C14.6886 10.7016 14.8467 11.0003 15.0916 11.1936C14.9534 11.5197 14.8801 11.8722 14.8801 12.2335C14.8801 13.4861 15.74 14.5408 16.9215 14.8444V16.5984C16.9215 18.822 18.1346 20.7654 19.9304 21.8002C18.2485 22.551 16.3474 23.8889 14.7383 26.2702V25.0481C14.7383 24.2947 14.148 23.6785 13.4069 23.6359V17.6303C13.4069 15.9584 12.7586 14.3865 11.5815 13.2042L9.68117 11.2953C9.49194 11.1052 9.2405 11.0002 8.97272 10.9991V9.89525C8.97272 7.4994 7.02353 5.55021 4.62768 5.55021H2.38629C1.83079 5.55021 1.37891 6.0021 1.37891 6.55752V8.82701C1.37891 11.2229 3.32809 13.1721 5.72395 13.1721H6.81421C6.81693 13.4263 6.91415 13.6797 7.10681 13.8733L9.00731 15.7823C9.49859 16.2756 9.76909 16.9319 9.76909 17.6302V23.6541C9.4849 23.7038 9.22304 23.8385 9.01492 24.0474C9.01492 24.0474 9.01492 24.0474 9.01484 24.0475L7.00632 26.0649C6.74014 26.3324 6.59351 26.6877 6.59351 27.0655V32.8547C6.59351 33.6358 7.22733 34.2711 8.00641 34.2711H9.07786V35.2218C9.07786 35.5536 9.34668 35.8224 9.67844 35.8224C10.0102 35.8224 10.279 35.5536 10.279 35.2218V34.2711H10.7759C11.555 34.2711 12.1887 33.6357 12.1887 32.8547V24.8328H13.3256C13.4423 24.8328 13.5372 24.9294 13.5372 25.048V39.5836C13.5372 39.7023 13.4423 39.7988 13.3256 39.7988H10.4908C10.374 39.7988 10.279 39.7023 10.279 39.5836V37.8775C10.279 37.5457 10.0102 37.2769 9.67844 37.2769C9.34668 37.2769 9.07786 37.5457 9.07786 37.8775V39.5836C9.07786 40.3647 9.71168 41 10.4908 41H13.3256C14.1047 41 14.7384 40.3646 14.7384 39.5836V28.6563C15.3718 27.3871 16.0885 26.3616 16.8379 25.5321V38.0227C16.8379 38.3545 17.1067 38.6233 17.4385 38.6233C17.7703 38.6233 18.0391 38.3545 18.0391 38.0227V24.3804C18.5819 23.9325 19.1277 23.5698 19.659 23.2769V27.0942C19.659 28.6237 20.8989 29.868 22.4231 29.868H24.492C24.8238 29.868 25.0926 29.5992 25.0926 29.2674C25.0926 28.9357 24.8238 28.6668 24.492 28.6668H22.4231C21.5613 28.6668 20.8602 27.9614 20.8602 27.0942V25.6612C20.9294 25.7426 21.002 25.823 21.0794 25.9012C21.9595 26.7897 23.17 27.2403 24.6772 27.2403C26.1845 27.2403 27.3941 26.7896 28.2721 25.9006C28.3461 25.8257 28.4154 25.7488 28.4818 25.6709V27.0942C28.4818 27.9062 27.8774 28.5788 27.0759 28.6589C26.7459 28.6919 26.505 28.9862 26.538 29.3163C26.569 29.626 26.8301 29.8572 27.1349 29.8572C27.1549 29.8572 27.175 29.8562 27.1954 29.8542C28.6136 29.7123 29.6829 28.5259 29.6829 27.0942V23.2747C30.2166 23.5684 30.7621 23.9311 31.3028 24.3772V38.0227C31.3028 38.3545 31.5716 38.6233 31.9034 38.6233C32.2352 38.6233 32.504 38.3545 32.504 38.0227V25.5285C33.5118 26.6442 34.457 28.1124 35.2229 30.0452L38.4636 38.2435C38.5569 38.4795 38.783 38.6235 39.0224 38.6235C39.0958 38.6235 39.1706 38.6099 39.243 38.5813C39.5513 38.4593 39.7024 38.1104 39.5805 37.8019ZM32.4198 8.64924H33.4518V10.2196H32.4198V8.64924ZM32.4198 11.4207H33.013C33.173 11.6611 33.2603 11.9421 33.2603 12.2335C33.2603 12.8161 32.9202 13.3206 32.4198 13.5682V11.4207ZM16.9215 13.5684C16.4213 13.3208 16.0813 12.8163 16.0813 12.2335C16.0813 11.9421 16.1686 11.6612 16.3286 11.4208H16.9215V13.5684ZM16.9215 10.2196H15.8898V8.64924H16.9215V10.2196ZM7.77146 11.7811L7.58248 11.9709H5.72387C3.99041 11.9709 2.58 10.5605 2.58 8.82701V6.75139H4.6276C6.36105 6.75139 7.77146 8.16172 7.77146 9.89525V11.7811ZM10.9873 32.8547C10.9873 32.9734 10.8923 33.0699 10.7757 33.0699H8.00625C7.8895 33.0699 7.79453 32.9734 7.79453 32.8547V30.5262H10.9873V32.8547ZM10.9873 29.325H7.79453V27.0655C7.79453 27.0084 7.81743 26.9525 7.85747 26.9123L9.86599 24.8948C9.90587 24.8549 9.95864 24.8329 10.0146 24.8329H10.9872L10.9873 29.325ZM12.2056 23.6316H10.9701V17.6302C10.9701 16.612 10.5753 15.6548 9.85846 14.9347L8.0925 13.1611L8.96807 12.2817L10.7301 14.0517C11.6816 15.0074 12.2056 16.2784 12.2056 17.6303V23.6316ZM27.4102 25.0636C26.7667 25.7108 25.847 26.0391 24.6768 26.0391C23.5063 26.0391 22.5854 25.7106 21.9394 25.063C21.1773 24.2985 20.9531 23.2504 20.8872 22.7022C21.1363 22.6055 21.3779 22.5229 21.6102 22.4526C22.0235 22.5438 22.4521 22.5932 22.8922 22.5932H26.4489C26.8892 22.5932 27.3181 22.5437 27.7316 22.4525C27.9656 22.5233 28.2074 22.6059 28.4552 22.702C28.3913 23.2494 28.1707 24.2987 27.4102 25.0636Z" fill="#111111"/>
<path d="M19.4551 10.9576V13.2646C19.4551 14.0446 20.0897 14.6792 20.8697 14.6792H28.472C29.2519 14.6792 29.8865 14.0446 29.8865 13.2646V10.9576C29.8865 10.1776 29.2519 9.54297 28.472 9.54297H20.8697C20.0896 9.54297 19.4551 10.1776 19.4551 10.9576ZM28.6853 10.9576V13.2646C28.6853 13.3823 28.5896 13.478 28.4719 13.478H20.8697C20.7519 13.478 20.6562 13.3823 20.6562 13.2646V10.9576C20.6562 10.8399 20.7519 10.7441 20.8697 10.7441H28.4719C28.5896 10.7441 28.6853 10.84 28.6853 10.9576Z" fill="#111111"/>
<path d="M20.0088 8.79883H20.0147C20.3465 8.79883 20.6123 8.53001 20.6123 8.19824C20.6123 7.86648 20.3405 7.59766 20.0088 7.59766C19.6771 7.59766 19.4082 7.86648 19.4082 8.19824C19.4082 8.53001 19.677 8.79883 20.0088 8.79883Z" fill="#111111"/>
<path d="M20.0088 3.36133H20.0147C20.3465 3.36133 20.6123 3.09251 20.6123 2.76074C20.6123 2.42898 20.3405 2.16016 20.0088 2.16016C19.6771 2.16016 19.4082 2.42898 19.4082 2.76074C19.4082 3.09251 19.677 3.36133 20.0088 3.36133Z" fill="#111111"/>
<path d="M22.3449 8.79883C22.6766 8.79883 22.9424 8.53001 22.9424 8.19824C22.9424 7.86648 22.6706 7.59766 22.3389 7.59766C22.0072 7.59766 21.7383 7.86648 21.7383 8.19824C21.7383 8.53001 22.0071 8.79883 22.3389 8.79883H22.3449Z" fill="#111111"/>
<path d="M24.673 8.79883C25.0048 8.79883 25.2705 8.53001 25.2705 8.19824C25.2705 7.86648 24.9987 7.59766 24.667 7.59766C24.3353 7.59766 24.0664 7.86648 24.0664 8.19824C24.0664 8.53001 24.3352 8.79883 24.667 8.79883H24.673Z" fill="#111111"/>
<path d="M27.003 8.79883C27.3348 8.79883 27.6006 8.53001 27.6006 8.19824C27.6006 7.86648 27.3288 7.59766 26.9971 7.59766C26.6654 7.59766 26.3965 7.86648 26.3965 8.19824C26.3965 8.53001 26.6653 8.79883 26.9971 8.79883H27.003Z" fill="#111111"/>
<path d="M29.3271 8.79883H29.3332C29.6649 8.79883 29.9308 8.53001 29.9308 8.19824C29.9308 7.86648 29.6588 7.59766 29.3271 7.59766C28.9955 7.59766 28.7266 7.86648 28.7266 8.19824C28.7266 8.53001 28.9954 8.79883 29.3271 8.79883Z" fill="#111111"/>
<path d="M29.3271 3.36133H29.3332C29.6649 3.36133 29.9308 3.09251 29.9308 2.76074C29.9308 2.42898 29.6588 2.16016 29.3271 2.16016C28.9955 2.16016 28.7266 2.42898 28.7266 2.76074C28.7266 3.09251 28.9954 3.36133 29.3271 3.36133Z" fill="#111111"/>
<path d="M20.0088 16.627H20.0147C20.3465 16.627 20.6123 16.3581 20.6123 16.0264C20.6123 15.6946 20.3405 15.4258 20.0088 15.4258C19.6771 15.4258 19.4082 15.6946 19.4082 16.0264C19.4082 16.3581 19.677 16.627 20.0088 16.627Z" fill="#111111"/>
<path d="M21.7383 16.0264C21.7383 16.3581 22.0071 16.627 22.3389 16.627H22.3449C22.6766 16.627 22.9424 16.3581 22.9424 16.0264C22.9424 15.6946 22.6706 15.4258 22.3389 15.4258C22.0072 15.4258 21.7383 15.6946 21.7383 16.0264Z" fill="#111111"/>
<path d="M24.0664 16.0264C24.0664 16.3581 24.3352 16.627 24.667 16.627H24.673C25.0048 16.627 25.2705 16.3581 25.2705 16.0264C25.2705 15.6946 24.9987 15.4258 24.667 15.4258C24.3353 15.4258 24.0664 15.6946 24.0664 16.0264Z" fill="#111111"/>
<path d="M26.3965 16.0264C26.3965 16.3581 26.6653 16.627 26.9971 16.627H27.003C27.3348 16.627 27.6006 16.3581 27.6006 16.0264C27.6006 15.6946 27.3288 15.4258 26.9971 15.4258C26.6654 15.4258 26.3965 15.6946 26.3965 16.0264Z" fill="#111111"/>
<path d="M29.3271 15.4258C28.9954 15.4258 28.7266 15.6946 28.7266 16.0264C28.7266 16.3581 28.9954 16.627 29.3271 16.627H29.3332C29.6649 16.627 29.9308 16.3581 29.9308 16.0264C29.9308 15.6946 29.6588 15.4258 29.3271 15.4258Z" fill="#111111"/>
</svg>
