<svg width="45" height="45" viewBox="0 0 45 45" fill="none" xmlns="http://www.w3.org/2000/svg">
<g clip-path="url(#clip0_499_13360)">
<path d="M44.3408 43.6809H42.1819V34.6204C42.6133 34.2411 42.8864 33.6857 42.8864 33.0674C42.8864 31.9269 41.9585 30.9992 40.8182 30.9992H36.5056L35.8397 20.3445C35.818 19.9971 35.5299 19.7265 35.1818 19.7265H32.3636C32.0156 19.7265 31.7275 19.9971 31.7058 20.3445L31.0398 30.9992H29.4601L28.7942 20.3445C28.7725 19.9971 28.4844 19.7265 28.1363 19.7265H25.3182C24.9702 19.7265 24.6821 19.9971 24.6604 20.3445L23.9944 30.9992H22.4147L21.7488 20.3445C21.7271 19.9971 21.439 19.7265 21.0909 19.7265H18.2728C17.9248 19.7265 17.6367 19.9971 17.615 20.3445L16.949 30.9992H15.113L14.7046 12.6211C14.6967 12.2628 14.404 11.9766 14.0456 11.9766H9.81835C9.46002 11.9766 9.16726 12.2628 9.15935 12.6211L8.68834 33.8174H3.4773C2.33684 33.8174 1.40906 34.7452 1.40906 35.8856C1.40906 36.5039 1.68214 37.0593 2.11359 37.4387V43.6809H0.65918C0.295137 43.6809 0 43.976 0 44.3401C0 44.7041 0.295137 44.9993 0.65918 44.9993H44.3408C44.7049 44.9993 45 44.7041 45 44.3401C45 43.976 44.7049 43.6809 44.3408 43.6809ZM8.6255 36.6356H6.29578C5.93174 36.6356 5.6366 36.9307 5.6366 37.2948C5.6366 37.6588 5.93174 37.954 6.29578 37.954H8.59623L8.46896 43.6809H3.43195V37.9527C3.44707 37.9531 3.4621 37.9539 3.4773 37.9539C3.84135 37.9539 4.13648 37.6587 4.13648 37.2947C4.13648 36.9306 3.84135 36.6355 3.4773 36.6355C3.06378 36.6355 2.72742 36.2991 2.72742 35.8856C2.72742 35.4721 3.06387 35.1357 3.4773 35.1357H8.65881L8.6255 36.6356ZM32.9828 21.0449H34.5625L35.1846 30.9992H32.3607L32.9828 21.0449ZM25.9374 21.0449H27.5171L28.1392 30.9992H25.3153L25.9374 21.0449ZM18.892 21.0449H20.4717L21.0938 30.9992H18.2698L18.892 21.0449ZM11.2728 43.6809H9.78776L10.4629 13.2948H13.4008L13.7943 30.9992H12.6365C11.496 30.9992 10.5681 31.927 10.5681 33.0674C10.5681 33.6857 10.8412 34.2411 11.2728 34.6204V43.6809ZM40.8182 33.8173H39.4091C39.0451 33.8173 38.7499 34.1124 38.7499 34.4765C38.7499 34.8405 39.0451 35.1357 39.4091 35.1357H40.8182C40.8334 35.1357 40.8484 35.1348 40.8635 35.1345V43.6809H12.591V35.1345C12.6062 35.1349 12.6212 35.1357 12.6364 35.1357H36.5914C36.9555 35.1357 37.2506 34.8405 37.2506 34.4765C37.2506 34.1124 36.9555 33.8173 36.5914 33.8173H12.6364C12.2229 33.8173 11.8864 33.4809 11.8864 33.0674C11.8864 32.654 12.2229 32.3175 12.6364 32.3175H40.8181C41.2316 32.3175 41.568 32.6539 41.568 33.0674C41.568 33.4809 41.2316 33.8173 40.8182 33.8173Z" fill="black"/>
<path d="M36.5907 0C34.6049 0 32.7117 0.693017 31.1983 1.96295C30.1118 1.14768 28.7951 0.704531 27.4316 0.704531C25.7765 0.704531 24.1964 1.358 23.0219 2.51332C22.4131 2.25079 21.7545 2.11359 21.0908 2.11359C19.131 2.11359 17.384 3.28702 16.6172 5.04316C16.3527 4.96907 16.0818 4.93172 15.8067 4.93172C14.445 4.93172 13.274 5.81722 12.8558 7.05762C12.7829 7.04953 12.7096 7.0454 12.6362 7.0454C11.4957 7.0454 10.5679 7.97326 10.5679 9.11364C10.568 9.47777 10.8631 9.77291 11.2271 9.77291C11.5912 9.77291 11.8863 9.47777 11.8863 9.11373C11.8863 8.7002 12.2228 8.36385 12.6363 8.36385C12.7671 8.36385 12.8953 8.40085 13.0173 8.47389C13.2149 8.5921 13.4597 8.5986 13.6634 8.49129C13.8669 8.38389 13.9998 8.17805 14.0137 7.94821C14.0715 6.99609 14.859 6.25025 15.8066 6.25025C16.1062 6.25025 16.402 6.3312 16.6855 6.4909C16.8631 6.591 17.0773 6.60313 17.2653 6.52377C17.4533 6.4444 17.5938 6.28251 17.6461 6.08528C18.06 4.52311 19.4765 3.43204 21.0907 3.43204C21.7024 3.43204 22.3084 3.592 22.8431 3.89452C23.1165 4.04921 23.4612 3.98953 23.6666 3.7517C24.6154 2.65307 25.9878 2.02298 27.4315 2.02298C28.666 2.02298 29.8528 2.48379 30.7734 3.32042C31.0303 3.55386 31.4242 3.54814 31.6742 3.30724C33.0049 2.02465 34.7509 1.31836 36.5907 1.31836C40.5006 1.31836 43.6815 4.4993 43.6815 8.40911C43.6815 12.3189 40.5006 15.4999 36.5907 15.4999C33.9949 15.4999 31.6085 14.0825 30.363 11.801C30.1969 11.4967 29.8235 11.3731 29.5086 11.5182C28.8475 11.8227 28.1487 11.9771 27.4316 11.9771C25.9878 11.9771 24.6155 11.347 23.6666 10.2484C23.4613 10.0107 23.1166 9.95089 22.8432 10.1056C22.3085 10.4081 21.7025 10.5681 21.0908 10.5681C19.9768 10.5681 18.946 10.058 18.2629 9.16875C18.1388 9.00729 17.9471 8.9122 17.7434 8.91114C17.7423 8.91114 17.7412 8.91114 17.7402 8.91114C17.5378 8.91114 17.3464 9.00422 17.2215 9.16356C16.8727 9.60838 16.3571 9.86344 15.8067 9.86344C15.4426 9.86344 15.1475 10.1586 15.1475 10.5226C15.1475 10.8867 15.4426 11.1818 15.8067 11.1818C16.5053 11.1818 17.1698 10.9484 17.7112 10.5249C18.6157 11.3975 19.8129 11.8863 21.0908 11.8863C21.7545 11.8863 22.4131 11.7491 23.0219 11.4867C24.1964 12.642 25.7766 13.2955 27.4316 13.2955C28.142 13.2955 28.8376 13.1762 29.5065 12.9404C31.0466 15.3464 33.7097 16.8182 36.5907 16.8182C41.2275 16.8182 44.9998 13.0459 44.9998 8.40911C44.9998 3.77235 41.2275 0 36.5907 0Z" fill="black"/>
<path d="M16.8638 36.6367C16.4997 36.6367 16.2046 36.9319 16.2046 37.2959V38.705C16.2046 39.069 16.4997 39.3641 16.8638 39.3641C17.2278 39.3641 17.5229 39.069 17.5229 38.705V37.2959C17.5229 36.9319 17.2278 36.6367 16.8638 36.6367Z" fill="black"/>
<path d="M19.6816 36.6367C19.3176 36.6367 19.0225 36.9319 19.0225 37.2959V38.705C19.0225 39.069 19.3176 39.3641 19.6816 39.3641C20.0457 39.3641 20.3408 39.069 20.3408 38.705V37.2959C20.3408 36.9319 20.0457 36.6367 19.6816 36.6367Z" fill="black"/>
<path d="M22.5 36.6367C22.136 36.6367 21.8408 36.9319 21.8408 37.2959V38.705C21.8408 39.069 22.136 39.3641 22.5 39.3641C22.864 39.3641 23.1592 39.069 23.1592 38.705V37.2959C23.1592 36.9319 22.864 36.6367 22.5 36.6367Z" fill="black"/>
<path d="M25.3184 36.6367C24.9543 36.6367 24.6592 36.9319 24.6592 37.2959V38.705C24.6592 39.069 24.9543 39.3641 25.3184 39.3641C25.6824 39.3641 25.9775 39.069 25.9775 38.705V37.2959C25.9775 36.9319 25.6825 36.6367 25.3184 36.6367Z" fill="black"/>
<path d="M28.1362 36.6367C27.7722 36.6367 27.4771 36.9319 27.4771 37.2959V38.705C27.4771 39.069 27.7722 39.3641 28.1362 39.3641C28.5003 39.3641 28.7954 39.069 28.7954 38.705V37.2959C28.7954 36.9319 28.5003 36.6367 28.1362 36.6367Z" fill="black"/>
<path d="M30.9546 36.6367C30.5905 36.6367 30.2954 36.9319 30.2954 37.2959V38.705C30.2954 39.069 30.5905 39.3641 30.9546 39.3641C31.3186 39.3641 31.6138 39.069 31.6138 38.705V37.2959C31.6138 36.9319 31.3186 36.6367 30.9546 36.6367Z" fill="black"/>
<path d="M33.7725 36.6367C33.4084 36.6367 33.1133 36.9319 33.1133 37.2959V38.705C33.1133 39.069 33.4084 39.3641 33.7725 39.3641C34.1365 39.3641 34.4316 39.069 34.4316 38.705V37.2959C34.4316 36.9319 34.1365 36.6367 33.7725 36.6367Z" fill="black"/>
<path d="M36.5908 36.6367C36.2268 36.6367 35.9316 36.9319 35.9316 37.2959V38.705C35.9316 39.069 36.2268 39.3641 36.5908 39.3641C36.9549 39.3641 37.25 39.069 37.25 38.705V37.2959C37.25 36.9319 36.9549 36.6367 36.5908 36.6367Z" fill="black"/>
</g>
<defs>
<clipPath id="clip0_499_13360">
<rect width="45" height="45" fill="white"/>
</clipPath>
</defs>
</svg>
