<svg width="46" height="46" viewBox="0 0 46 46" fill="none" xmlns="http://www.w3.org/2000/svg">
<g clip-path="url(#clip0_499_13437)">
<path d="M0.761272 45.6675H31.2056C31.6257 45.6675 31.9668 45.3267 31.9668 44.9065V28.9233C31.9665 27.977 31.8184 27.0363 31.5282 26.1357C33.6479 25.2061 35.3419 23.5146 36.2739 21.3956C37.0947 19.1557 37.3341 16.7436 36.9696 14.386C42.91 11.9558 46.0829 7.15648 45.621 3.97412C45.3624 2.06449 43.6869 0.669813 41.762 0.762142C36.8982 0.762142 31.8679 3.89364 31.8679 9.1344C31.8937 10.4685 32.0048 11.7997 32.2006 13.1198L32.2037 13.1404C32.2051 13.1592 32.2065 13.1777 32.2097 13.1961C32.5299 15.5117 32.8333 17.6983 32.0288 19.7037C31.4083 20.9109 30.3377 21.8255 29.0486 22.2495C27.3643 20.6702 25.1422 19.7905 22.8333 19.7898H9.13353C4.09136 19.7953 0.00557454 23.8811 0 28.9233V44.9065C0 45.3267 0.340743 45.6675 0.761272 45.6675ZM9.13353 34.2508H15.9832C16.4038 34.2512 16.7442 34.5919 16.7445 35.0121V39.5787C16.7442 39.9989 16.4038 40.3396 15.9832 40.3399H6.85006V34.2508H9.13353ZM25.1168 35.0121V39.5787H18.2667V35.0121H25.1168ZM17.673 33.4899C17.2438 33.0073 16.6292 32.7304 15.9832 32.7286H12.9388V21.312H19.0276V33.4899H17.673ZM6.85006 41.8621H15.9832C16.6292 41.8604 17.2438 41.5834 17.673 41.1009H25.1168V44.1453H6.85006V41.8621ZM30.4443 44.1453H26.639V31.2064C26.639 30.7862 26.2982 30.4455 25.8777 30.4455C25.4575 30.4455 25.1168 30.7862 25.1168 31.2064V33.4899H23.5946V21.3506C27.4811 21.7461 30.4394 25.0166 30.4443 28.9233V44.1453ZM33.4413 20.2706C34.3963 17.8892 34.0507 15.3977 33.7245 13.046C33.7242 12.9874 33.7172 12.9293 33.7036 12.8721C33.5204 11.6342 33.4155 10.3855 33.3901 9.1344C33.3901 4.84619 37.6466 2.28434 41.762 2.28434C42.9295 2.18853 43.966 3.02819 44.1144 4.19013C44.5071 6.90005 41.2916 11.1583 35.8795 13.1787C35.5495 13.3017 35.3471 13.6351 35.3903 13.9846C35.7018 16.5168 35.7307 18.6508 34.8604 20.8315C34.09 22.5784 32.6908 23.9714 30.9408 24.734C30.7035 24.2794 30.4286 23.8456 30.1185 23.4373C31.5864 22.839 32.773 21.7078 33.4413 20.2706ZM22.0724 21.312V33.4899H20.5502V21.312H22.0724ZM11.4166 21.312V32.7286H9.89445V21.312H11.4166ZM1.5222 28.9233C1.52742 25.0166 4.48576 21.7461 8.37226 21.3506V32.7286H6.85006V31.2064C6.85006 30.7862 6.50932 30.4455 6.08879 30.4455C5.66861 30.4455 5.32786 30.7862 5.32786 31.2064V44.1453H1.5222V28.9233Z" fill="black"/>
<path d="M18.383 0.330733C17.998 0.11681 17.5653 0.00322904 17.1249 9.33721e-05H15.9832C11.1522 -0.021508 7.13223 3.70751 6.79079 8.52669C6.4497 13.3459 9.90452 17.6038 14.6906 18.263C19.4767 18.9222 23.9537 15.7569 24.9282 11.0248C25.9027 6.2927 23.0402 1.61601 18.383 0.330733ZM15.9832 16.7446C13.0357 16.7575 10.3456 15.0674 9.0781 12.4062C7.81093 9.74508 8.19383 6.59128 10.0617 4.31095C11.9291 2.03062 14.9456 1.03382 17.8043 1.75189C18.2005 2.04421 18.3635 2.55776 18.2092 3.02498C18.0545 3.49219 17.6172 3.80715 17.1249 3.80576H15.9832C15.563 3.80576 15.2223 4.1465 15.2223 4.56668C15.2223 4.98721 15.563 5.32795 15.9832 5.32795H17.1249C18.5956 5.32621 19.7871 4.13466 19.7889 2.66402C19.7889 2.62326 19.7788 2.58528 19.7767 2.54487C22.7653 4.26148 24.2262 7.77309 23.3367 11.1025C22.4472 14.4322 19.4297 16.7474 15.9832 16.7446Z" fill="black"/>
<path d="M35.3706 11.4223C35.58 11.5467 35.8364 11.5631 36.0598 11.4662C38.6188 10.453 40.7647 8.61066 42.1538 6.23451C42.4489 5.71713 42.6095 5.13389 42.6206 4.53846C42.605 4.16288 42.3175 3.85523 41.944 3.81342C41.8838 3.8075 41.8228 3.80437 41.7618 3.80471C38.3951 3.80471 34.9121 5.79726 34.9121 9.13258C34.9121 9.64752 34.941 10.2057 35.0013 10.8391C35.0236 11.0816 35.1612 11.2986 35.3706 11.4223ZM40.8748 5.38022C40.8507 5.43457 40.8232 5.49101 40.7936 5.55024C39.7755 7.29995 38.2614 8.70821 36.4427 9.59666C36.4371 9.43674 36.4343 9.28239 36.4343 9.13258C36.4343 7.01948 38.5652 5.66069 40.8748 5.38022Z" fill="black"/>
</g>
<defs>
<clipPath id="clip0_499_13437">
<rect width="45.6667" height="45.6667" fill="white"/>
</clipPath>
</defs>
</svg>
