<svg width="45" height="45" viewBox="0 0 45 45" fill="none" xmlns="http://www.w3.org/2000/svg">
<g clip-path="url(#clip0_499_13443)">
<path d="M44.774 43.744L41.5152 40.9024C41.5493 40.8952 41.584 40.889 41.6181 40.8816L43.0864 40.5627C43.5623 40.4593 43.9211 40.0141 43.9211 39.5271C43.9211 39.3435 43.8446 39.1682 43.7099 39.0435C42.7208 38.1274 41.7887 37.1361 40.9297 36.0871C40.9663 36.0795 41.0026 36.0718 41.0388 36.0638L42.3011 35.7896C42.7517 35.6917 43.0915 35.2702 43.0915 34.809C43.0915 34.6254 43.015 34.4502 42.8803 34.3254C41.9072 33.4241 41.0015 32.4409 40.1783 31.3932C40.234 31.3818 40.2893 31.3701 40.3444 31.3582L41.6014 31.0852C41.9865 31.0015 42.2452 30.6429 42.2031 30.251C42.1744 29.9837 42.0122 29.7611 41.7867 29.6467C40.3349 28.2839 39.0956 26.7186 38.1018 24.9924L37.9203 24.6771C37.8027 24.4727 37.5848 24.3468 37.349 24.3468C37.1132 24.3468 36.8953 24.4727 36.7777 24.6771L36.5962 24.9924C35.9695 26.081 35.2378 27.1132 34.4196 28.0675L23.9697 7.85464C23.6574 7.25057 23.0859 6.89004 22.4409 6.89004C21.7958 6.89004 21.2243 7.25065 20.912 7.85464L19.1685 11.227C18.6802 10.589 18.2332 9.91901 17.8305 9.21967L17.6646 8.93139C17.5469 8.72704 17.3291 8.60109 17.0933 8.60109C16.8575 8.60109 16.6397 8.72704 16.522 8.93139L16.356 9.21976C16.2953 9.32522 16.2334 9.4299 16.1707 9.53405L11.8268 1.13162C11.4928 0.485449 10.8822 0.0996094 10.1936 0.0996094C9.50502 0.0996094 8.89453 0.485361 8.56037 1.13162L7.8307 2.54332C7.66354 2.86676 7.79019 3.26446 8.11354 3.43163C8.43706 3.59889 8.83468 3.47215 9.00176 3.1488L9.7316 1.73701C9.83646 1.53425 10.0049 1.41797 10.1937 1.41797C10.3825 1.41797 10.551 1.53425 10.6559 1.73701L13.0236 6.31699L12.3477 6.09401C11.8787 5.93941 11.3658 5.99426 10.9402 6.24475L10.3903 6.56845C10.2672 6.64087 10.1139 6.64157 9.99026 6.57003L9.41458 6.23728C8.98981 5.99171 8.47916 5.93994 8.01378 6.09507L7.36717 6.31058L7.80372 5.46612C7.97089 5.14277 7.84433 4.74507 7.52089 4.57781C7.19745 4.41064 6.79983 4.53729 6.63267 4.86064L4.6285 8.7375L1.09239 5.65403C0.897627 5.48414 0.621475 5.4438 0.386279 5.55076C0.150996 5.65781 0 5.89248 0 6.15088V43.4379C0 44.2441 0.65584 44.8999 1.46206 44.8999H44.3408C44.6157 44.8999 44.8617 44.7294 44.9581 44.4721C45.0545 44.2148 44.9812 43.9246 44.774 43.744ZM35.1312 29.2573C35.9522 28.3387 36.696 27.3466 37.3487 26.3004C38.1878 27.6463 39.1711 28.8931 40.2841 30.0222L40.0644 30.07C39.6946 30.1503 39.3081 30.2156 38.9158 30.264C38.6847 30.2925 38.4859 30.4409 38.3926 30.6541C38.2993 30.8674 38.3254 31.114 38.4614 31.3031C39.3195 32.4964 40.2781 33.6204 41.3185 34.654L40.7588 34.7755C40.401 34.8532 40.023 34.9209 39.6352 34.9767C39.4042 35.0099 39.2078 35.163 39.1192 35.379C39.0306 35.595 39.0629 35.8417 39.2041 36.0277C40.1128 37.2248 41.1124 38.3595 42.1834 39.4097L41.3382 39.5933C41.0494 39.656 40.7564 39.7103 40.4639 39.7596L35.0666 29.3195C35.0891 29.3003 35.111 29.28 35.1312 29.2573ZM22.4409 8.20831C22.4951 8.20831 22.5473 8.22123 22.5958 8.24575C22.6766 8.28671 22.7469 8.36001 22.7986 8.46003L26.2057 15.0506L24.7496 14.6157C24.6021 14.5717 24.4439 14.5806 24.3024 14.6409L22.4667 15.4238L20.8432 14.9065L20.9936 14.8738C21.374 14.7911 21.6295 14.4369 21.588 14.0499C21.5599 13.7886 21.4028 13.5707 21.1838 13.4567C20.8 13.0962 20.4332 12.7197 20.0828 12.3292L22.083 8.46003C22.1658 8.30007 22.2963 8.20831 22.4409 8.20831ZM17.0934 10.5502C17.8341 11.7263 18.6953 12.8189 19.6653 13.8133L19.5645 13.8352C19.228 13.9082 18.8764 13.9676 18.5193 14.0117C18.2882 14.0403 18.0894 14.1886 17.996 14.4018C17.9027 14.6151 17.9289 14.8617 18.0648 15.0508C18.831 16.1163 19.6845 17.1214 20.6098 18.0485L20.1994 18.1376C19.8731 18.2084 19.5288 18.2701 19.176 18.3208C18.9449 18.3541 18.7486 18.5071 18.66 18.7231C18.5713 18.9391 18.6035 19.1858 18.7447 19.3718C19.556 20.4408 20.4467 21.4554 21.3997 22.3969L20.729 22.5427C20.6617 22.5572 20.5991 22.5818 20.5422 22.6142L14.3609 17.2241C14.9873 16.5349 15.5783 15.8066 16.1218 15.0508C16.2577 14.8618 16.2838 14.6151 16.1905 14.4018C16.0973 14.1885 15.8984 14.0402 15.6673 14.0117C15.3102 13.9677 14.9586 13.9082 14.6221 13.8352L14.5212 13.8133C15.4916 12.8188 16.3528 11.7262 17.0934 10.5502ZM6.5076 7.9732C6.54996 7.96784 6.59232 7.95853 6.63442 7.94446L8.43073 7.34566C8.53814 7.3098 8.65644 7.32176 8.75487 7.37862L9.33056 7.71138C9.86493 8.02022 10.5272 8.01759 11.0591 7.70452L11.6089 7.38082C11.7074 7.32281 11.8261 7.31016 11.9348 7.34593L13.8643 7.98252C13.872 7.98507 13.88 7.98595 13.8877 7.98823L15.3387 10.7948C14.6483 11.7537 13.8674 12.6449 13.0032 13.4568C12.7842 13.5708 12.6271 13.7887 12.599 14.05C12.5575 14.437 12.813 14.7912 13.1934 14.8738L14.3427 15.1235C14.3636 15.128 14.3845 15.1325 14.4055 15.1369C14.0737 15.556 13.7265 15.9634 13.3674 16.3576L5.65137 9.6295L6.5076 7.9732ZM1.46206 43.5816C1.38278 43.5816 1.31836 43.5171 1.31836 43.438V7.60028L25.5334 28.7156C25.8078 28.9548 26.2241 28.9264 26.4634 28.6519C26.7027 28.3775 26.6742 27.9611 26.3998 27.7219L21.7525 23.6695L22.3514 23.5394C22.8118 23.4394 23.1592 23.0087 23.1592 22.5374C23.1592 22.3538 23.0826 22.1785 22.9479 22.0538C22.068 21.2389 21.2376 20.3587 20.4701 19.428C20.4732 19.4274 20.4761 19.4267 20.4793 19.426L21.6333 19.1753C22.0707 19.0803 22.4006 18.6711 22.4006 18.2234C22.4006 18.0398 22.324 17.8646 22.1893 17.7399C21.6797 17.2679 21.191 16.7706 20.7245 16.2524L22.2999 16.7544C22.4503 16.8023 22.6131 16.7946 22.7586 16.7326L24.6005 15.9472L27.0469 16.6778L37.9743 37.8147L28.4127 29.4771C28.1384 29.2378 27.7219 29.2662 27.4826 29.5407C27.2434 29.8151 27.2718 30.2315 27.5462 30.4707L42.582 43.5816H1.46206Z" fill="black"/>
<path d="M23.389 38.225L18.4523 33.9202C18.1779 33.6809 17.7615 33.7093 17.5222 33.9838C17.283 34.2582 17.3114 34.6746 17.5858 34.9139L22.5226 39.2187C22.6475 39.3277 22.8018 39.381 22.9555 39.381C23.1394 39.381 23.3223 39.3045 23.4526 39.155C23.6919 38.8806 23.6634 38.4643 23.389 38.225Z" fill="black"/>
<path d="M29.3788 38.7362L30.4871 39.7026C30.612 39.8116 30.7663 39.8649 30.9201 39.8649C31.1039 39.8649 31.2868 39.7885 31.4172 39.639C31.6564 39.3646 31.6279 38.9481 31.3535 38.7089L30.2452 37.7425C29.9709 37.5032 29.5545 37.5316 29.3152 37.806C29.0759 38.0805 29.1044 38.4968 29.3788 38.7362Z" fill="black"/>
<path d="M15.7453 27.5683L6.401 19.4202C6.1266 19.1809 5.71026 19.2093 5.47094 19.4838C5.2317 19.7582 5.26017 20.1746 5.53457 20.4139L14.8788 28.562C15.0037 28.6709 15.1581 28.7243 15.3118 28.7243C15.4957 28.7243 15.6786 28.6478 15.8089 28.4983C16.0481 28.2239 16.0197 27.8075 15.7453 27.5683Z" fill="black"/>
</g>
<defs>
<clipPath id="clip0_499_13443">
<rect width="45" height="45" fill="white"/>
</clipPath>
</defs>
</svg>
