<svg width="45" height="45" viewBox="0 0 45 45" fill="none" xmlns="http://www.w3.org/2000/svg">
<path d="M11.3321 8.25395C11.3321 7.29161 11.0467 6.35089 10.512 5.55076C9.97736 4.75064 9.21741 4.12704 8.32829 3.75885C7.43918 3.39066 6.46084 3.29442 5.51702 3.48229C4.57321 3.67016 3.7063 4.1337 3.02595 4.8143C2.3456 5.4949 1.88236 6.36197 1.69484 7.30586C1.50731 8.24974 1.60391 9.22804 1.97242 10.117C2.34093 11.006 2.9648 11.7657 3.76512 12.3001C4.56544 12.8345 5.50626 13.1196 6.4686 13.1192C7.75821 13.1174 8.99445 12.6041 9.90619 11.6921C10.8179 10.78 11.3307 9.54357 11.3321 8.25395ZM2.83239 8.25395C2.83239 7.53511 3.04553 6.83241 3.44486 6.2347C3.8442 5.63699 4.41179 5.17111 5.07589 4.89596C5.73998 4.62081 6.47074 4.54875 7.17579 4.68888C7.88083 4.82902 8.5285 5.17506 9.03689 5.68326C9.54528 6.19145 9.89157 6.83898 10.032 7.54397C10.1724 8.24896 10.1006 8.97975 9.82572 9.64395C9.55082 10.3082 9.08516 10.8759 8.4876 11.2755C7.89005 11.6751 7.18743 11.8885 6.4686 11.8888C5.50469 11.888 4.58045 11.5049 3.89873 10.8234C3.21701 10.1419 2.8335 9.21786 2.83239 8.25395Z" fill="black"/>
<path d="M15.4337 25.2815H9.72289V16.9322C9.72736 16.5018 9.64646 16.0748 9.48485 15.6759C9.32324 15.277 9.08415 14.9141 8.78139 14.6082C8.47863 14.3023 8.11822 14.0594 7.721 13.8937C7.32379 13.7279 6.89765 13.6426 6.46725 13.6426C6.03684 13.6426 5.6107 13.7279 5.21349 13.8937C4.81627 14.0594 4.45586 14.3023 4.1531 14.6082C3.85034 14.9141 3.61125 15.277 3.44964 15.6759C3.28804 16.0748 3.20713 16.5018 3.2116 16.9322V28.5373C3.21253 29.4008 3.55605 30.2286 4.16673 30.839C4.77742 31.4494 5.60537 31.7926 6.46883 31.7931H12.1761V40.1427C12.1761 41.0062 12.5191 41.8344 13.1297 42.4449C13.7403 43.0555 14.5684 43.3986 15.4319 43.3986C16.2954 43.3986 17.1235 43.0555 17.7341 42.4449C18.3447 41.8344 18.6877 41.0062 18.6877 40.1427V28.5373C18.6867 27.6744 18.3436 26.8472 17.7336 26.2368C17.1236 25.6265 16.2966 25.283 15.4337 25.2815ZM17.459 40.1427C17.459 40.6799 17.2456 41.1951 16.8658 41.5749C16.486 41.9547 15.9708 42.1681 15.4337 42.1681C14.8965 42.1681 14.3814 41.9547 14.0015 41.5749C13.6217 41.1951 13.4083 40.6799 13.4083 40.1427V31.1779C13.4083 31.0147 13.3435 30.8582 13.2281 30.7429C13.1127 30.6275 12.9563 30.5627 12.7931 30.5627H6.46883C5.93184 30.5621 5.41701 30.3485 5.0373 29.9688C4.6576 29.5891 4.44403 29.0743 4.44348 28.5373V16.9322C4.43994 16.664 4.48972 16.3978 4.5899 16.149C4.69009 15.9002 4.8387 15.6738 5.02711 15.4829C5.21551 15.292 5.43996 15.1404 5.68742 15.0369C5.93489 14.9335 6.20043 14.8802 6.46865 14.8802C6.73687 14.8802 7.00242 14.9335 7.24988 15.0369C7.49734 15.1404 7.72179 15.292 7.9102 15.4829C8.0986 15.6738 8.24721 15.9002 8.3474 16.149C8.44759 16.3978 8.49736 16.664 8.49383 16.9322V25.8971C8.49392 26.0602 8.55877 26.2167 8.67413 26.332C8.78949 26.4474 8.94592 26.5122 9.10906 26.5123H15.4337C15.9706 26.513 16.4854 26.7266 16.8651 27.1062C17.2448 27.4859 17.4584 28.0007 17.459 28.5377V40.1427Z" fill="black"/>
<path d="M38.5313 3.33398C37.569 3.33398 36.6284 3.61933 35.8283 4.15393C35.0282 4.68853 34.4046 5.44839 34.0364 6.3374C33.6681 7.22641 33.5718 8.20466 33.7595 9.14843C33.9472 10.0922 34.4106 10.9591 35.091 11.6395C35.7714 12.3199 36.6384 12.7833 37.5821 12.971C38.5259 13.1588 39.5041 13.0624 40.3932 12.6942C41.2822 12.3259 42.042 11.7023 42.5766 10.9023C43.1112 10.1022 43.3966 9.16152 43.3966 8.19926C43.3952 6.90934 42.8821 5.67265 41.97 4.76053C41.0579 3.84842 39.8212 3.33538 38.5313 3.33398ZM38.5313 11.8341C37.8124 11.8341 37.1096 11.6209 36.5119 11.2215C35.9142 10.8221 35.4483 10.2544 35.1732 9.59024C34.8981 8.92606 34.8261 8.19523 34.9663 7.49014C35.1066 6.78506 35.4528 6.1374 35.9611 5.62906C36.4694 5.12073 37.1171 4.77454 37.8222 4.63429C38.5273 4.49405 39.2581 4.56603 39.9223 4.84114C40.5864 5.11625 41.1541 5.58213 41.5535 6.17987C41.9529 6.77761 42.1661 7.48036 42.1661 8.19926C42.165 9.16293 41.7817 10.0868 41.1003 10.7682C40.4188 11.4496 39.495 11.8329 38.5313 11.8341Z" fill="black"/>
<path d="M38.5309 13.6758C37.6678 13.6768 36.8403 14.0202 36.23 14.6305C35.6197 15.2409 35.2764 16.0685 35.2754 16.9316V25.2812H29.5678C28.7046 25.2822 27.8771 25.6256 27.2667 26.236C26.6564 26.8463 26.313 27.6738 26.312 28.537V40.1425C26.312 41.006 26.655 41.8341 27.2656 42.4447C27.8762 43.0553 28.7043 43.3983 29.5678 43.3983C30.4313 43.3983 31.2595 43.0553 31.87 42.4447C32.4806 41.8341 32.8237 41.006 32.8237 40.1425V31.7929H38.5309C39.3941 31.7919 40.2217 31.4486 40.8321 30.8382C41.4425 30.2278 41.7858 29.4002 41.7867 28.537V16.932C41.7859 16.0687 41.4426 15.241 40.8322 14.6305C40.2218 14.0201 39.3942 13.6767 38.5309 13.6758ZM40.5563 28.5367C40.5557 29.0737 40.3421 29.5885 39.9624 29.9682C39.5827 30.3479 39.0679 30.5615 38.5309 30.562H32.2084C32.0452 30.562 31.8888 30.6269 31.7734 30.7422C31.658 30.8576 31.5932 31.0141 31.5932 31.1773V40.1421C31.5932 40.6793 31.3798 41.1944 31 41.5743C30.6201 41.9541 30.105 42.1675 29.5678 42.1675C29.0307 42.1675 28.5155 41.9541 28.1357 41.5743C27.7559 41.1944 27.5425 40.6793 27.5425 40.1421V28.537C27.5431 28.0001 27.7567 27.4853 28.1364 27.1056C28.5161 26.7259 29.0309 26.5123 29.5678 26.5117H35.8921C36.0552 26.5116 36.2117 26.4467 36.327 26.3314C36.4424 26.216 36.5072 26.0596 36.5073 25.8964V16.9316C36.5038 16.6634 36.5536 16.3972 36.6538 16.1484C36.7539 15.8996 36.9026 15.6731 37.091 15.4822C37.2794 15.2913 37.5038 15.1398 37.7513 15.0363C37.9987 14.9328 38.2643 14.8796 38.5325 14.8796C38.8007 14.8796 39.0663 14.9328 39.3137 15.0363C39.5612 15.1398 39.7856 15.2913 39.974 15.4822C40.1624 15.6731 40.3111 15.8996 40.4112 16.1484C40.5114 16.3972 40.5612 16.6634 40.5577 16.9316L40.5563 28.5367Z" fill="black"/>
<path d="M13.3081 22.314H31.692C31.8552 22.314 32.0117 22.2492 32.127 22.1338C32.2424 22.0184 32.3072 21.8619 32.3072 21.6988V18.4883C32.3072 18.3251 32.2424 18.1686 32.127 18.0532C32.0117 17.9379 31.8552 17.873 31.692 17.873H13.3081C13.1449 17.873 12.9884 17.9379 12.8731 18.0532C12.7577 18.1686 12.6929 18.3251 12.6929 18.4883V21.6988C12.6929 21.8619 12.7577 22.0184 12.8731 22.1338C12.9884 22.2492 13.1449 22.314 13.3081 22.314ZM13.9219 19.1035H31.0782V21.0835H13.9219V19.1035Z" fill="black"/>
<path d="M13.308 12.5854H17.2156V14.2916C17.2157 14.4547 17.2806 14.6111 17.3959 14.7265C17.5113 14.8419 17.6677 14.9067 17.8309 14.9068H29.6483C29.8114 14.9067 29.9679 14.8419 30.0832 14.7265C30.1986 14.6111 30.2634 14.4547 30.2635 14.2916V6.95621L32.1405 4.95898C32.2227 4.87148 32.2775 4.76184 32.2981 4.64357C32.3188 4.52531 32.3044 4.4036 32.2567 4.29343C32.209 4.18326 32.1301 4.08944 32.0298 4.02355C31.9294 3.95765 31.812 3.92255 31.6919 3.92258H27.7843V2.2168C27.7843 2.05363 27.7195 1.89714 27.6041 1.78176C27.4887 1.66638 27.3322 1.60156 27.1691 1.60156H15.3517C15.1885 1.60156 15.032 1.66638 14.9166 1.78176C14.8012 1.89714 14.7364 2.05363 14.7364 2.2168V9.55145L12.8598 11.5483C12.7772 11.6357 12.7221 11.7454 12.7012 11.8638C12.6804 11.9822 12.6947 12.1041 12.7424 12.2145C12.7901 12.3249 12.8691 12.4188 12.9696 12.4847C13.0701 12.5507 13.1878 12.5857 13.308 12.5854ZM27.7843 11.9702V5.15305H30.2695L29.2001 6.29246C29.0926 6.40666 29.0329 6.55757 29.0331 6.71434V13.6753H18.4461V12.5854H27.1691C27.2499 12.5854 27.33 12.5695 27.4047 12.5385C27.4794 12.5076 27.5472 12.4622 27.6044 12.405C27.6615 12.3478 27.7068 12.2799 27.7377 12.2051C27.7686 12.1304 27.7844 12.0503 27.7843 11.9695V11.9702ZM15.7999 10.2166C15.9072 10.1024 15.967 9.95148 15.9669 9.79473V2.83203H26.5538V11.355H14.7304L15.7999 10.2166Z" fill="black"/>
<path d="M24.2349 7.91406H18.2861C18.123 7.91406 17.9665 7.97888 17.8511 8.09426C17.7357 8.20964 17.6709 8.36613 17.6709 8.5293C17.6709 8.69247 17.7357 8.84895 17.8511 8.96433C17.9665 9.07971 18.123 9.14453 18.2861 9.14453H24.2349C24.3981 9.14453 24.5546 9.07971 24.67 8.96433C24.7853 8.84895 24.8502 8.69247 24.8502 8.5293C24.8502 8.36613 24.7853 8.20964 24.67 8.09426C24.5546 7.97888 24.3981 7.91406 24.2349 7.91406Z" fill="black"/>
<path d="M24.2349 5.04102H18.2861C18.123 5.04102 17.9665 5.10583 17.8511 5.22121C17.7357 5.33659 17.6709 5.49308 17.6709 5.65625C17.6709 5.81942 17.7357 5.97591 17.8511 6.09129C17.9665 6.20667 18.123 6.27148 18.2861 6.27148H24.2349C24.3981 6.27148 24.5546 6.20667 24.67 6.09129C24.7853 5.97591 24.8502 5.81942 24.8502 5.65625C24.8502 5.49308 24.7853 5.33659 24.67 5.22121C24.5546 5.10583 24.3981 5.04102 24.2349 5.04102Z" fill="black"/>
</svg>
