<svg width="46" height="45" viewBox="0 0 46 45" fill="none" xmlns="http://www.w3.org/2000/svg">
<g clip-path="url(#clip0_499_13464)">
<path d="M38.5997 34.8327C38.0717 33.6018 37.0544 32.6141 35.8085 32.1228L28.1399 29.0989C27.9731 29.0331 27.8653 28.8749 27.8653 28.6955V26.3126C29.5074 25.0808 30.6967 23.4673 31.4066 21.5055C31.6465 20.8426 31.8312 20.1387 31.9613 19.3979C33.633 19.3202 34.9693 17.936 34.9693 16.2454C34.9693 15.9022 34.9117 15.5611 34.803 15.2375C35.3141 14.8899 35.6505 14.3038 35.6505 13.6404V13.4788C35.6505 12.4145 34.7846 11.5486 33.7202 11.5486H33.238V10.0897C33.238 6.63463 31.3655 3.48679 28.3409 1.83152C28.2696 0.809709 27.4162 0 26.3766 0C25.7585 0 25.2062 0.286457 24.8448 0.733227C24.5077 0.697021 24.1666 0.67852 23.8269 0.67852H22.392C21.9897 0.67852 21.5846 0.704191 21.188 0.754914C21.1632 0.758101 21.1391 0.762793 21.1153 0.768547C20.7539 0.352406 20.2215 0.0885219 19.6284 0.0885219C18.5754 0.0885219 17.7127 0.919122 17.6611 1.95961C17.634 1.9712 17.6071 1.98404 17.5811 1.99953C14.7436 3.6903 12.9809 6.79025 12.9809 10.0896V11.5485H12.3289C11.2646 11.5485 10.3987 12.4144 10.3987 13.4787V13.6403C10.3987 14.3243 10.7566 14.9258 11.2946 15.2688C11.1923 15.5827 11.1406 15.9099 11.1406 16.2454C11.1406 17.9001 12.4207 19.2605 14.0425 19.3905C14.1709 20.1235 14.3523 20.8203 14.588 21.477C15.2961 23.4501 16.4874 25.072 18.1352 26.3092V28.6955C18.1352 28.8748 18.0274 29.0331 17.8606 29.0989L10.192 32.1228C8.94607 32.6141 7.92878 33.6018 7.40083 34.8328C6.21119 37.607 5.60791 40.5442 5.60791 43.5627C5.60791 44.3552 6.2527 45 7.04524 45H29.3208C29.6875 45 29.9847 44.7027 29.9847 44.3361C29.9847 43.9694 29.6875 43.6722 29.3208 43.6722H23.2232V42.0363H24.6354C25.2338 42.0363 25.7206 41.5495 25.7206 40.9511V39.3186C25.7206 38.7202 25.2338 38.2333 24.6354 38.2333H23.2232V36.3619H26.3401C27.771 36.3619 28.935 35.1979 28.935 33.7669V30.8397L30.0823 31.2921V34.7157C30.0823 35.7588 30.4772 36.7508 31.1942 37.5088L32.1985 38.5704C32.4539 38.8404 32.5946 39.1939 32.5946 39.5656V43.6722H31.9765C31.6098 43.6722 31.3126 43.9694 31.3126 44.3361C31.3126 44.7027 31.6098 45 31.9765 45H38.9554C39.748 45 40.3927 44.3552 40.3927 43.5627C40.3926 40.5441 39.7894 37.6068 38.5997 34.8327ZM19.4629 27.1545C20.5689 27.7238 21.7855 28.0096 23.0025 28.0096C24.2179 28.0096 25.4327 27.7245 26.5375 27.1568V28.6576C26.5259 28.6701 26.5144 28.6826 26.5036 28.6961L26.1431 29.1504C25.3775 30.1152 24.2319 30.6686 23.0002 30.6686C21.7686 30.6686 20.6229 30.1152 19.8573 29.1504L19.491 28.6889C19.482 28.6776 19.4724 28.6674 19.4629 28.6569V27.1545ZM32.134 18.0438C32.1993 17.2546 32.2089 16.4293 32.1621 15.5705H33.5127C33.5979 15.784 33.6415 16.0101 33.6415 16.2454C33.6415 17.1439 32.9894 17.8914 32.134 18.0438ZM31.9102 10.0896V11.5485H28.3463V3.38676C30.5644 4.88083 31.9102 7.37502 31.9102 10.0896ZM25.7346 11.5485V2.05831C25.7346 1.70431 26.0226 1.41635 26.3766 1.41635C26.7306 1.41635 27.0185 1.70431 27.0185 2.05831V11.5485H25.7346ZM22.392 2.00635H23.8269C24.0201 2.00635 24.2139 2.01325 24.4068 2.02689V2.05831V11.5485H21.5982V2.05831C21.5982 2.05388 21.598 2.04955 21.5979 2.04512C21.8611 2.01954 22.1272 2.00635 22.392 2.00635ZM14.3087 10.0896C14.3087 7.49709 15.5765 5.04849 17.6587 3.53795V6.35764C17.6587 6.7243 17.9559 7.02155 18.3226 7.02155C18.6892 7.02155 18.9865 6.7243 18.9865 6.35764V2.05831C18.9865 1.70431 19.2744 1.41635 19.6285 1.41635C19.9824 1.41635 20.2705 1.70431 20.2705 2.05831V11.5485H18.9866V9.01321C18.9866 8.64655 18.6893 8.34929 18.3227 8.34929C17.956 8.34929 17.6587 8.64655 17.6587 9.01321V11.5485H14.3087V10.0896ZM11.7265 13.4787C11.7265 13.1466 11.9968 12.8763 12.3289 12.8763H33.7203C34.0525 12.8763 34.3227 13.1466 34.3227 13.4787V13.6403C34.3227 13.9725 34.0525 14.2427 33.7203 14.2427H12.3289C11.9968 14.2427 11.7265 13.9725 11.7265 13.6403V13.4787ZM12.4684 16.2454C12.4684 16.0111 12.5139 15.7849 12.5994 15.5705H13.8426C13.7961 16.4211 13.8054 17.2387 13.869 18.0211C13.0669 17.8277 12.4684 17.106 12.4684 16.2454ZM15.1731 15.5705H30.8318C31.1069 20.2599 29.6255 23.6661 26.4239 25.695C24.3455 27.0122 21.6594 27.0121 19.581 25.695C16.379 23.6658 14.8977 20.2598 15.1731 15.5705ZM6.93565 43.5627C6.93565 40.7251 7.50272 37.964 8.62111 35.3561C9.01025 34.4485 9.76038 33.7203 10.679 33.358L14.5937 31.8144V34.7157C14.5937 35.4181 14.3278 36.086 13.8451 36.5964L12.841 37.6579C12.3513 38.1756 12.0816 38.853 12.0816 39.5656V43.6722H7.04524C6.98478 43.6722 6.93565 43.623 6.93565 43.5627ZM24.3928 40.7085H19.2909V39.5611H24.3928V40.7085ZM19.0483 38.2333C18.4499 38.2333 17.9631 38.7202 17.9631 39.3186V40.9511C17.9631 41.5495 18.4499 42.0363 19.0483 42.0363H21.8954V43.6722H13.4093V39.5656C13.4093 39.1939 13.55 38.8405 13.8056 38.5704L14.8097 37.5088C15.5266 36.751 15.9215 35.759 15.9215 34.7157C15.9215 34.7157 15.9203 31.3052 15.9195 31.2916L17.0689 30.8384V33.7669C17.0689 35.1978 18.233 36.3619 19.6639 36.3619H21.8954V38.2333H19.0483ZM26.3401 35.0341H19.6639C18.9652 35.0341 18.3968 34.4657 18.3968 33.7669V30.3126C18.5679 30.2392 18.7226 30.1416 18.858 30.0244C19.8768 31.2779 21.3822 31.9965 23.0002 31.9965C24.6184 31.9965 26.1239 31.2779 27.1426 30.0244C27.2789 30.1424 27.4348 30.2406 27.6073 30.3141V33.7669C27.6072 34.4656 27.0387 35.0341 26.3401 35.0341ZM38.9553 43.6722H33.9224V39.5656C33.9224 38.853 33.6528 38.1755 33.1631 37.6579L32.1589 36.5964C31.6761 36.086 31.4103 35.4181 31.4103 34.7157V31.8157L35.3215 33.358C36.2401 33.7203 36.9902 34.4485 37.3795 35.3561C38.4978 37.9639 39.0648 40.725 39.0648 43.5627C39.0648 43.623 39.0156 43.6722 38.9553 43.6722Z" fill="black"/>
</g>
<defs>
<clipPath id="clip0_499_13464">
<rect width="45" height="45" fill="white" transform="translate(0.5)"/>
</clipPath>
</defs>
</svg>
