<svg width="46" height="46" viewBox="0 0 46 46" fill="none" xmlns="http://www.w3.org/2000/svg">
<g clip-path="url(#clip0_499_13469)">
<path d="M41.5632 43.8438C40.8789 43.8438 40.5706 43.6051 40.1436 43.2752C39.6427 42.8878 39.0202 42.4062 37.8443 42.4062C36.6699 42.4062 36.0475 42.8878 35.5472 43.2752C35.1203 43.6051 34.8127 43.8438 34.1291 43.8438C33.447 43.8438 33.1394 43.6051 32.7132 43.2752C32.2129 42.8885 31.5905 42.4062 30.4168 42.4062C29.2423 42.4062 28.6199 42.8885 28.1197 43.2752C27.6934 43.6051 27.3851 43.8438 26.7023 43.8438C26.0195 43.8438 25.7118 43.6051 25.2856 43.2752C24.7847 42.8885 24.1629 42.4062 22.9885 42.4062C21.8148 42.4062 21.1916 42.8885 20.6921 43.2752C20.2659 43.6051 19.9575 43.8438 19.2747 43.8438C18.5919 43.8438 18.2843 43.6051 17.8581 43.2752C17.3585 42.8885 16.7361 42.4062 15.5617 42.4062C14.3879 42.4062 13.7655 42.8885 13.266 43.2752C12.8398 43.6051 12.5321 43.8438 11.85 43.8438C11.1687 43.8438 10.861 43.6051 10.4348 43.2759C9.93528 42.8885 9.31356 42.4062 8.13984 42.4062C6.96613 42.4062 6.34369 42.8885 5.84416 43.2752C5.41794 43.6051 5.10959 43.8438 4.4275 43.8438C3.74612 43.8438 3.43922 43.6058 3.01372 43.2759C2.51419 42.8885 1.89175 42.4062 0.71875 42.4062V43.8438C1.40013 43.8438 1.70703 44.0817 2.13253 44.4116C2.63278 44.799 3.2545 45.2812 4.4275 45.2812C5.60122 45.2812 6.22366 44.799 6.72391 44.4123C7.15012 44.0824 7.45703 43.8438 8.13984 43.8438C8.82122 43.8438 9.12884 44.0824 9.55506 44.4116C10.0546 44.799 10.677 45.2812 11.85 45.2812C13.023 45.2812 13.6462 44.799 14.1457 44.4123C14.5719 44.0824 14.8796 43.8438 15.5617 43.8438C16.2445 43.8438 16.5521 44.0824 16.9783 44.4123C17.4786 44.799 18.101 45.2812 19.2747 45.2812C20.4492 45.2812 21.0716 44.799 21.5718 44.4123C21.9981 44.0824 22.3057 43.8438 22.9885 43.8438C23.6713 43.8438 23.9789 44.0824 24.4052 44.4123C24.9054 44.799 25.5278 45.2812 26.7023 45.2812C27.8767 45.2812 28.4992 44.799 28.9994 44.4123C29.4256 44.0824 29.734 43.8438 30.4168 43.8438C31.0989 43.8438 31.4065 44.0824 31.8327 44.4123C32.333 44.799 32.9554 45.2812 34.1291 45.2812C35.3036 45.2812 35.9267 44.799 36.427 44.4123C36.8532 44.0824 37.1615 43.8438 37.8443 43.8438C38.5286 43.8438 38.8369 44.0824 39.2639 44.4123C39.7648 44.7997 40.388 45.2812 41.5632 45.2812C42.7383 45.2812 43.3615 44.7997 43.8624 44.4123C44.2887 44.0824 44.597 43.8438 45.2812 43.8438V42.4062C44.1061 42.4062 43.4837 42.8878 42.9827 43.2752C42.5557 43.6051 42.2474 43.8438 41.5632 43.8438Z" fill="black"/>
<path d="M41.5632 39.5312C40.8789 39.5312 40.5706 39.2926 40.1436 38.9627C39.6427 38.5753 39.0202 38.0938 37.8443 38.0938C36.6699 38.0938 36.0475 38.5753 35.5472 38.9627C35.1203 39.2926 34.8127 39.5312 34.1291 39.5312C33.447 39.5312 33.1394 39.2926 32.7132 38.9627C32.2129 38.576 31.5905 38.0938 30.4168 38.0938C29.2423 38.0938 28.6199 38.576 28.1197 38.9627C27.6934 39.2926 27.3851 39.5312 26.7023 39.5312C26.0195 39.5312 25.7118 39.2926 25.2856 38.9627C24.7847 38.576 24.1629 38.0938 22.9885 38.0938C22.7254 38.0938 22.494 38.1211 22.2812 38.1628V28.0312H25.4402C27.2773 28.0312 29.0569 27.4922 30.5864 26.473L29.7893 25.277C29.026 25.7852 28.1887 26.1481 27.3125 26.3638V22.5156L27.8422 22.3639C28.0341 22.3093 28.2332 22.2812 28.4338 22.2812H35.2188L37.6143 28.0312H41.0306L40.3506 19.8612C40.7646 20.028 41.2146 20.125 41.6875 20.125C43.6691 20.125 45.2812 18.5128 45.2812 16.5312C45.2812 14.7962 44.0443 13.3443 42.4062 13.0101V7.1875H39.1043L34.7918 15.0938H30.2881C29.5651 15.0938 28.8952 14.7351 28.4941 14.1335L25.8887 10.2249C25.2217 9.223 24.104 8.625 22.8987 8.625H21.5625V5.75H20.125V5.03125H31.0284C32.1497 5.03125 33.0625 4.11844 33.0625 2.99719V2.75281C33.0625 1.5065 31.8924 0.522531 30.654 0.753969L19.9568 2.75928C19.6298 1.98375 18.8622 1.4375 17.9688 1.4375C17.0753 1.4375 16.3077 1.98375 15.9807 2.75928L5.28209 0.75325C5.15919 0.730969 5.03412 0.71875 4.90906 0.71875C3.78781 0.71875 2.875 1.63156 2.875 2.75281V2.99719C2.875 4.11844 3.78781 5.03125 4.90906 5.03125H15.8125V5.75H14.375V8.625H11.3361C9.84616 8.625 8.49419 9.56225 7.97094 10.9566L6.68941 14.375H5.52072C2.87284 14.375 0.71875 16.5291 0.71875 19.1777V21.5625C0.71875 22.7513 1.68619 23.7188 2.875 23.7188H10.0625V26.3638C9.18634 26.1481 8.349 25.7852 7.58641 25.277L6.78931 26.473C8.31809 27.4922 10.0977 28.0312 11.9348 28.0312H15.0938V38.1239C14.2154 38.2318 13.6943 38.6314 13.266 38.9627C12.8398 39.2926 12.5321 39.5312 11.85 39.5312C11.1687 39.5312 10.861 39.2926 10.4348 38.9634C9.93528 38.576 9.31356 38.0938 8.13984 38.0938C6.96613 38.0938 6.34369 38.576 5.84416 38.9627C5.41794 39.2926 5.10959 39.5312 4.4275 39.5312C3.74612 39.5312 3.43922 39.2933 3.01372 38.9634C2.51419 38.576 1.89175 38.0938 0.71875 38.0938V39.5312C1.40013 39.5312 1.70703 39.7692 2.13253 40.0991C2.63278 40.4865 3.2545 40.9688 4.4275 40.9688C5.60122 40.9688 6.22366 40.4865 6.72391 40.0998C7.15012 39.7699 7.45703 39.5312 8.13984 39.5312C8.82122 39.5312 9.12884 39.7699 9.55506 40.0991C10.0546 40.4865 10.677 40.9688 11.85 40.9688C13.023 40.9688 13.6462 40.4865 14.1457 40.0998C14.5719 39.7699 14.8796 39.5312 15.5617 39.5312C16.2445 39.5312 16.5521 39.7699 16.9783 40.0998C17.4786 40.4865 18.101 40.9688 19.2747 40.9688C20.4492 40.9688 21.0716 40.4865 21.5718 40.0998C21.9981 39.7699 22.3057 39.5312 22.9885 39.5312C23.6713 39.5312 23.9789 39.7699 24.4052 40.0998C24.9054 40.4865 25.5278 40.9688 26.7023 40.9688C27.8767 40.9688 28.4992 40.4865 28.9994 40.0998C29.4256 39.7699 29.734 39.5312 30.4168 39.5312C31.0989 39.5312 31.4065 39.7699 31.8327 40.0998C32.333 40.4865 32.9554 40.9688 34.1291 40.9688C35.3036 40.9688 35.9267 40.4865 36.427 40.0998C36.8532 39.7699 37.1615 39.5312 37.8443 39.5312C38.5286 39.5312 38.8369 39.7699 39.2639 40.0998C39.7648 40.4872 40.388 40.9688 41.5632 40.9688C42.7383 40.9688 43.3615 40.4872 43.8624 40.0998C44.2887 39.7699 44.597 39.5312 45.2812 39.5312V38.0938C44.1061 38.0938 43.4837 38.5753 42.9827 38.9627C42.5557 39.2926 42.2474 39.5312 41.5632 39.5312ZM16.5312 29.4688H20.8438V30.9062H16.5312V29.4688ZM20.8438 22.2812H16.5312V15.0938H20.8438V22.2812ZM20.8438 23.7188V25.1562H16.5312V23.7188H20.8438ZM16.5312 26.5938H20.8438V28.0312H16.5312V26.5938ZM16.5312 32.3438H20.8438V33.7812H16.5312V32.3438ZM16.5312 35.2188H20.8438V36.6562H16.5312V35.2188ZM25.875 26.5779C25.7305 26.5858 25.5853 26.5938 25.4402 26.5938H22.2812V23.7188H22.5975C22.9317 23.7188 23.2645 23.672 23.5843 23.5807L25.875 22.926V26.5779ZM28.4338 20.8438C28.0995 20.8438 27.7668 20.8905 27.4469 20.9818L23.189 22.1979C22.9971 22.2532 22.798 22.2812 22.5975 22.2812H22.2812V20.6856L27.4009 19.4062H34.0206L34.6193 20.8438H28.4338ZM43.8438 16.5312C43.8438 17.7201 42.8763 18.6875 41.6875 18.6875C40.4987 18.6875 39.5312 17.7201 39.5312 16.5312C39.5312 15.3424 40.4987 14.375 41.6875 14.375C42.8763 14.375 43.8438 15.3424 43.8438 16.5312ZM39.9582 8.625H40.9688V13.0101C39.8137 13.2458 38.8614 14.0386 38.3985 15.0938H36.4298L39.9582 8.625ZM30.917 2.16703C31.2771 2.09731 31.625 2.38625 31.625 2.75281V2.99719C31.625 3.32638 31.3569 3.59375 31.0284 3.59375H23.3062L30.917 2.16703ZM4.90906 3.59375C4.58059 3.59375 4.3125 3.32638 4.3125 2.99719V2.75281C4.3125 2.42362 4.58059 2.15625 4.90906 2.15625C4.94644 2.15625 4.98381 2.15984 5.01903 2.16631L12.6313 3.59375H4.90906ZM17.25 3.59375C17.25 3.197 17.5727 2.875 17.9688 2.875C18.3648 2.875 18.6875 3.197 18.6875 3.59375V5.75H17.25V3.59375ZM15.8125 7.1875H20.125V8.625H15.8125V7.1875ZM8.76372 12.9375H10.7812V14.375H8.22466L8.76372 12.9375ZM2.15625 21.5625V20.8438H11.5V19.4062H2.15625V19.1777C2.15625 17.3226 3.66563 15.8125 5.52072 15.8125H12.2188V12.9375C12.2188 12.1447 11.574 11.5 10.7812 11.5H9.30278L9.31716 11.4612C9.63125 10.6246 10.442 10.0625 11.3361 10.0625H22.8987C23.6217 10.0625 24.2916 10.4212 24.6927 11.0227L27.2981 14.9313C27.9658 15.9333 29.0835 16.5312 30.2888 16.5312H38.0938C38.0938 17.043 38.2044 17.5274 38.3985 17.9688H36.6562V19.4062H38.87L39.4687 26.5938H38.5724L34.9787 17.9688H27.3125L22.2812 19.2079V15.0938C22.2812 14.301 21.6365 13.6562 20.8438 13.6562H16.5312C15.7385 13.6562 15.0938 14.301 15.0938 15.0938V19.4062H12.9375V20.8438H15.0938V22.2812H2.875C2.47897 22.2812 2.15625 21.9592 2.15625 21.5625ZM11.9348 26.5938C11.7889 26.5938 11.6445 26.5858 11.5 26.5779V23.7188H15.0938V26.5938H11.9348ZM19.2747 39.5312C18.5919 39.5312 18.2843 39.2926 17.8581 38.9627C17.5188 38.7004 17.1178 38.3971 16.5305 38.2274V38.0938H20.843V38.8463C20.7913 38.8851 20.7402 38.9246 20.6914 38.9627C20.2659 39.2926 19.9575 39.5312 19.2747 39.5312Z" fill="black"/>
<path d="M42.4062 15.8125H40.9688V17.25H42.4062V15.8125Z" fill="black"/>
</g>
<defs>
<clipPath id="clip0_499_13469">
<rect width="46" height="46" fill="white"/>
</clipPath>
</defs>
</svg>
