<svg width="234" height="438" viewBox="0 0 234 438" fill="none" xmlns="http://www.w3.org/2000/svg">
<path d="M17.1509 428.296C36.8275 428.178 42.055 419.73 54.6245 397.319C82.4066 347.921 111.011 298.933 139.792 250.121C152.126 229.177 153.007 209.171 140.262 188.168C122.7 159.186 105.666 129.852 88.6327 100.577C75.4758 77.9313 62.7888 54.9922 49.5145 32.4051C40.058 16.3301 25.5502 8.58591 6.8721 8.52724C-3.70038 8.52724 18.0907 8.93792 5.28624 8.58591C3.46542 8.52725 1.76208 6.18053 0 4.83117C1.58588 3.30581 3.17174 0.372416 4.75761 0.372416C29.6617 0.137745 63.6111 -0.390266 89.8074 0.489752C108.897 1.25243 122.876 11.8713 132.45 28.1223C143.727 47.248 154.476 66.7257 165.636 85.9101C185.371 119.879 205.224 153.789 225.076 187.757C237.294 208.643 236.765 229.412 224.724 250.18C223.432 252.409 222.316 254.697 221.024 256.927C206.163 282.213 191.068 307.381 176.384 332.784C162.992 355.958 149.718 379.249 136.855 402.658C123.816 426.36 104.433 438.621 77.1204 437.976C57.0914 437.506 37.9435 437.506 17.1509 436.861C14.3316 436.744 11.6297 434.045 8.86914 432.52C11.6297 431.053 14.3903 428.354 17.1509 428.296Z" fill="#FDA101"/>
</svg>
