<svg width="118" height="220" viewBox="0 0 118 220" fill="none" xmlns="http://www.w3.org/2000/svg">
<path d="M8.64876 215.126C18.5711 215.067 21.2072 210.823 27.5457 199.567C41.5555 174.755 55.98 150.149 70.4933 125.632C76.7133 115.112 77.1576 105.063 70.7302 94.5137C61.8741 79.9566 53.2846 65.2226 44.6951 50.5182C38.0604 39.1436 31.6627 27.6216 24.9688 16.2765C20.2002 8.20232 12.8843 4.31256 3.46542 4.28309C-1.866 4.28309 9.12266 4.48937 2.66571 4.31256C1.74752 4.28309 0.888573 3.10438 0 2.42662C0.799721 1.66045 1.59943 0.187058 2.39915 0.187058C14.9576 0.0691869 32.0774 -0.196024 45.2875 0.245994C54.9137 0.629076 61.963 5.96276 66.7909 14.1254C72.4778 23.7319 77.898 33.5152 83.5256 43.1512C93.4776 60.2131 103.489 77.2455 113.5 94.3074C119.661 104.798 119.394 115.23 113.322 125.661C112.671 126.781 112.108 127.93 111.456 129.05C103.963 141.751 96.3507 154.392 88.9459 167.152C82.1928 178.792 75.4989 190.491 69.0123 202.248C62.4369 214.153 52.6626 220.312 38.8898 219.988C28.7897 219.752 19.1339 219.752 8.64876 219.428C7.22704 219.369 5.86457 218.013 4.47247 217.247C5.86457 216.511 7.25667 215.155 8.64876 215.126Z" fill="#4AA1B2" fill-opacity="0.2"/>
</svg>
